<svg width="1536" height="1217" viewBox="0 0 1536 1217" fill="none" xmlns="http://www.w3.org/2000/svg">
<path d="M1041.8 162.4C1042 165.5 1042.1 168.6 1042.3 171.6C1042.3 172.2 1042.7 173 1043.4 173C1127.6 184.6 1212.5 174.8 1297 175C1320.9 175 1344.7 175.9 1368.5 178.2C1369.1 178.3 1369.8 177.7 1369.9 177.1C1370.7 173 1371.6 168.9 1372.4 164.8C1372.8 162.9 1369.9 162.1 1369.5 164C1368.7 168.1 1367.8 172.2 1367 176.3C1367.5 175.9 1368 175.6 1368.4 175.2C1284.7 167 1200.7 177.3 1116.8 175.5C1092.5 175 1068.2 173.4 1044.1 170.1C1044.5 170.6 1044.8 171.1 1045.2 171.5C1045 168.4 1044.9 165.3 1044.7 162.3C1044.7 160.5 1041.7 160.5 1041.8 162.4V162.4Z" fill="#E5E7EB"/>
<path d="M1044.3 163.9C1128.9 163.9 1213.6 163.9 1298.2 163.9C1322.2 163.9 1346.2 163.9 1370.2 163.9C1372.1 163.9 1372.1 160.9 1370.2 160.9C1285.6 160.9 1200.9 160.9 1116.3 160.9C1092.3 160.9 1068.3 160.9 1044.3 160.9C1042.4 160.9 1042.4 163.9 1044.3 163.9V163.9Z" fill="#E5E7EB"/>
<path d="M1062.5 161.5C1065 125.6 1067.1 89.5999 1070.2 53.7999C1070.6 49.0999 1071.1 44.4999 1071.9 39.8999C1072.2 38.1999 1072.3 34.6999 1073.3 33.2999C1074.6 31.4999 1077.4 31.4999 1079.4 31.1999C1084 30.3999 1091.7 27.5999 1094.9 32.2999C1095.8 33.6999 1096 36.5999 1096.3 38.2999C1096.9 41.2999 1097.3 44.2999 1097.6 47.2999C1099.2 64.9 1096.9 82.7999 1095.6 100.4C1094.1 120.8 1092.6 141.2 1091.1 161.6C1091 163.5 1094 163.5 1094.1 161.6C1096.3 132.4 1098.7 103.3 1100.5 74.0999C1101.3 60.6999 1101.7 46.9999 1098.4 33.7999C1097.5 30.0999 1096.1 26.9999 1091.9 26.5999C1085.5 26.0999 1078.1 28.2999 1071.9 29.5999C1071.4 29.6999 1071 30.1999 1070.9 30.5999C1065.6 51.2999 1065.8 73.5999 1064.3 94.7999C1062.7 117 1061.2 139.3 1059.6 161.5C1059.4 163.4 1062.4 163.4 1062.5 161.5V161.5Z" fill="#E5E7EB"/>
<path d="M1099.7 71.2C1111.9 101.9 1124.8 132.3 1138.3 162.4C1139.1 164.2 1141.7 162.6 1140.9 160.9C1127.5 131 1114.7 100.8 1102.6 70.4C1101.9 68.6 1099 69.4 1099.7 71.2V71.2Z" fill="#E5E7EB"/>
<path d="M1102.3 55.1C1104.8 48 1112.5 44.1 1119.7 46.1C1121.6 46.6 1122.4 43.7 1120.5 43.2C1111.7 40.7 1102.4 45.7 1099.4 54.3C1098.8 56.2 1101.7 56.9 1102.3 55.1V55.1Z" fill="#E5E7EB"/>
<path d="M1119.7 46.7C1139.5 85.1 1159.2 123.6 1179 162C1179.9 163.7 1182.5 162.2 1181.6 160.5C1161.8 122.1 1142.1 83.6 1122.3 45.2C1121.4 43.4 1118.8 44.9 1119.7 46.7V46.7Z" fill="#E5E7EB"/>
<path d="M1171.8 20.9C1175 67.4 1178.2 113.9 1181.3 160.4C1181.4 162.3 1184.4 162.3 1184.3 160.4C1181.1 113.9 1177.9 67.4 1174.8 20.9C1174.7 19 1171.7 19 1171.8 20.9V20.9Z" fill="#E5E7EB"/>
<path d="M1174.4 22.5C1179.5 17.9 1186.4 17.9 1192.8 19C1195.4 19.4 1198.2 19.9 1200.7 20.8C1205.3 22.5 1204.6 26.7 1204.8 30.8C1205.4 45.1 1205.9 59.4 1206.5 73.7C1207.6 102.6 1208.8 131.6 1209.9 160.5C1210 162.4 1213 162.4 1212.9 160.5C1211.5 125.9 1210.2 91.3 1208.8 56.8C1208.5 48.2 1208.1 39.5 1207.8 30.9C1207.6 26.5 1208.2 21.1 1203.6 18.7C1198.8 16.2 1191.4 15.3 1186 15.4C1180.8 15.5 1176.2 16.9 1172.4 20.4C1170.9 21.6 1173 23.8 1174.4 22.5V22.5Z" fill="#E5E7EB"/>
<path d="M1122.1 45C1131.6 45.6 1140.9 48.4 1150 51C1158.4 53.4 1166.6 56.4 1173.7 61.6C1175.3 62.7 1176.8 60.1 1175.2 59C1167.8 53.7 1159.4 50.6 1150.7 48.1C1141.3 45.4 1131.8 42.7 1122 42C1120.1 41.8 1120.1 44.8 1122.1 45V45Z" fill="#E5E7EB"/>
<path d="M1208.3 39.7C1212.7 38.6 1217.6 37.5 1222.2 38.4C1229 39.8 1230.4 45.8 1230.7 51.9C1231.2 64.2 1231.4 76.4 1231.7 88.7C1232.3 112.9 1232.6 137.1 1232.7 161.3C1232.7 163.2 1235.7 163.2 1235.7 161.3C1235.6 132.4 1235.2 103.6 1234.4 74.8C1234.2 67.8 1234 60.9 1233.8 53.9C1233.6 49.3 1233.7 44.2 1230.9 40.3C1225.7 33 1215 34.8 1207.6 36.7C1205.6 37.3 1206.4 40.2 1208.3 39.7V39.7Z" fill="#E5E7EB"/>
<path d="M1230.2 23.9C1230.2 32.9 1230.2 41.8 1230.2 50.8C1230.2 52.7 1233.2 52.7 1233.2 50.8C1233.2 41.8 1233.2 32.9 1233.2 23.9C1233.2 22 1230.2 22 1230.2 23.9V23.9Z" fill="#E5E7EB"/>
<path d="M1234.6 25C1235.4 25.3 1236.3 25.6 1237.1 25.9C1237.2 26.6 1237.3 27.3 1237.4 28.1C1237.6 29.7 1237.6 31.4 1237.8 33.1C1238 35.7 1238.2 38.4 1238.4 41C1238.8 46.6 1239.1 52.3 1239.4 57.9C1240.1 69.5 1240.6 81.1 1241 92.7C1241.9 115.6 1242.2 138.5 1242.2 161.4C1242.2 163.3 1245.2 163.3 1245.2 161.4C1245.2 132.9 1244.6 104.3 1243.3 75.8C1242.6 61.9 1241.8 48 1240.8 34.1C1240.6 30.7 1241.2 24.5 1238.1 22.1C1236 20.5 1233.1 21.1 1232 23.5C1231.3 25.3 1233.8 26.8 1234.6 25V25Z" fill="#E5E7EB"/>
<path d="M1087.2 177.1C1090.3 182.3 1093.3 190.1 1098.3 193.8C1103.2 197.5 1109.2 194.2 1114.6 196.1C1116.4 196.7 1117.2 193.8 1115.4 193.2C1110.6 191.5 1105 194.2 1100.7 191.5C1095.8 188.5 1092.7 180.4 1089.8 175.5C1088.8 173.9 1086.2 175.4 1087.2 177.1V177.1Z" fill="#E5E7EB"/>
<path d="M1118.6 178.4C1118.2 183.6 1116.6 188.3 1114 192.7C1113 194.4 1115.6 195.9 1116.6 194.2C1119.6 189.3 1121.2 184 1121.6 178.4C1121.8 176.5 1118.8 176.5 1118.6 178.4V178.4Z" fill="#E5E7EB"/>
<path d="M1110.1 180.9C1111 185.5 1111.9 190.1 1112.9 194.7C1113.3 196.6 1116.2 195.8 1115.8 193.9C1114.9 189.3 1114 184.7 1113 180.1C1112.6 178.2 1109.7 179 1110.1 180.9V180.9Z" fill="#E5E7EB"/>
<path d="M1113.7 180.8C1113.9 180.8 1114.1 180.9 1114.3 181C1114.6 181.6 1114.6 182.2 1114.5 182.8C1114.4 183.5 1114.1 184.2 1113.9 184.9C1113.5 186.3 1113.4 187.6 1113.8 189C1114.4 190.9 1117 190.1 1116.7 188.2C1116.2 185.5 1116.6 182.8 1117.7 180.3C1116.7 180.2 1115.7 180 1114.8 179.9C1114.5 183 1114.3 186.2 1114 189.3C1113.8 191.2 1116.8 191.2 1117 189.3C1117.3 186.2 1117.5 183 1117.8 179.9C1118 178.1 1115.4 178.1 1114.9 179.5C1113.6 182.6 1113.4 185.8 1113.9 189C1114.9 188.7 1115.8 188.5 1116.8 188.2C1115.9 185.2 1119.4 181.5 1116.4 178.8C1114.6 177.2 1111.7 177.8 1111 180.1C1110.2 181.9 1113.1 182.7 1113.7 180.8V180.8Z" fill="#E5E7EB"/>
<path d="M1270.4 158.9C1269.5 155.2 1269.1 151.6 1269.4 147.8C1268.9 148.3 1268.4 148.8 1267.9 149.3C1285.6 148.4 1303.3 147.3 1321 146.9C1329.9 146.7 1338.8 146.7 1347.7 146.9C1349.7 146.9 1351.7 147 1353.6 147C1355.6 147.1 1359.7 146.4 1361.5 147.3C1365.5 149.2 1363.8 156.9 1363.8 160.4C1363.8 162.3 1366.8 162.3 1366.8 160.4C1366.8 155.7 1369.2 145.7 1362.8 144.4C1358.4 143.5 1353.2 144 1348.7 143.9C1343.1 143.8 1337.5 143.7 1331.9 143.8C1310.6 143.9 1289.3 145.2 1267.9 146.3C1267.1 146.3 1266.4 147 1266.4 147.8C1266.2 151.9 1266.5 155.8 1267.6 159.7C1267.9 161.6 1270.8 160.8 1270.4 158.9V158.9Z" fill="#E5E7EB"/>
<path d="M1281.5 128.8C1282.7 134.3 1283.6 139.8 1284 145.4C1284.1 147.3 1287.1 147.3 1287 145.4C1286.6 139.5 1285.7 133.7 1284.4 128C1284 126.2 1281.1 127 1281.5 128.8V128.8Z" fill="#E5E7EB"/>
<path d="M1283.5 130.7C1295.6 129.7 1307.7 128.6 1319.8 129.1C1331.2 129.6 1342.7 133.3 1354.1 132.1C1353.6 131.6 1353.1 131.1 1352.6 130.6C1352.2 135.9 1352.8 140.9 1354.5 146C1355.1 147.8 1358 147 1357.4 145.2C1355.8 140.4 1355.2 135.7 1355.6 130.6C1355.7 129.8 1354.9 129 1354.1 129.1C1342.7 130.2 1331.2 126.5 1319.8 126.1C1307.7 125.6 1295.5 126.7 1283.5 127.7C1281.6 127.8 1281.6 130.8 1283.5 130.7V130.7Z" fill="#E5E7EB"/>
<path d="M1181.7 441C1181.7 445.2 1181.7 449.3 1181.7 453.5C1181.7 455.4 1184.7 455.4 1184.7 453.5C1184.7 449.3 1184.7 445.2 1184.7 441C1184.7 439.1 1181.7 439.1 1181.7 441V441Z" fill="#E5E7EB"/>
<path d="M1183.2 440C1261 440 1338.8 440 1416.6 440C1418.5 440 1418.5 437 1416.6 437C1338.8 437 1261 437 1183.2 437C1181.2 437 1181.2 440 1183.2 440V440Z" fill="#E5E7EB"/>
<path d="M1185.6 453.8C1262.2 453.8 1338.7 453.8 1415.3 453.8C1417.2 453.8 1417.2 450.8 1415.3 450.8C1338.7 450.8 1262.2 450.8 1185.6 450.8C1183.7 450.8 1183.7 453.8 1185.6 453.8V453.8Z" fill="#E5E7EB"/>
<path d="M1415.1 441C1415.1 443.9 1415.1 446.8 1415.1 449.7C1415.1 451.6 1418.1 451.6 1418.1 449.7C1418.1 446.8 1418.1 443.9 1418.1 441C1418.1 439.1 1415.1 439.1 1415.1 441V441Z" fill="#E5E7EB"/>
<path d="M1204.8 407.3C1207.4 417.6 1209.8 428 1211.8 438.4C1212.2 440.3 1215.1 439.5 1214.7 437.6C1212.7 427.2 1210.4 416.8 1207.7 406.5C1207.2 404.6 1204.3 405.4 1204.8 407.3V407.3Z" fill="#E5E7EB"/>
<path d="M1256.8 406.4C1254.4 416.7 1252.4 427 1250.9 437.4C1250.6 439.3 1253.5 440.1 1253.8 438.2C1255.3 427.8 1257.3 417.4 1259.7 407.2C1260.1 405.3 1257.2 404.5 1256.8 406.4V406.4Z" fill="#E5E7EB"/>
<path d="M1196.6 401.7C1196.8 406.9 1204.6 406.5 1208.4 406.7C1217 407.1 1225.7 405.8 1234.3 405.3C1238.6 405 1242.9 404.9 1247.2 405.3C1250.7 405.6 1254.5 406.8 1257.9 406.1C1261.7 405.3 1264.1 401.7 1261.9 398.2C1260.9 396.6 1258.3 398.1 1259.3 399.7C1262.1 404.4 1252.6 402.9 1251.7 402.8C1249.6 402.5 1247.4 402.3 1245.3 402.2C1240.4 401.9 1235.4 402.2 1230.5 402.6C1227.3 402.8 1199.7 406.1 1199.6 401.7C1199.6 399.7 1196.6 399.7 1196.6 401.7V401.7Z" fill="#E5E7EB"/>
<path d="M1200.1 401.3C1198.3 395.7 1213.8 396.3 1216.4 396.2C1221 396 1225.7 395.8 1230.3 395.6C1232.8 395.5 1258.8 394.8 1258.1 396.7C1257.5 398.5 1260.4 399.3 1261 397.5C1264 388.6 1231.5 392.5 1227.3 392.7C1219.5 393 1210.8 392.3 1203.2 393.8C1199.2 394.6 1195.8 397.6 1197.2 402C1197.8 403.9 1200.7 403.1 1200.1 401.3V401.3Z" fill="#E5E7EB"/>
<path d="M1213.4 393C1208.8 390.9 1204.7 387.9 1201.5 384.1C1200.2 382.5 1191 369.2 1196.4 368.4C1197.3 368.3 1197.8 366.9 1197.3 366.2C1194.4 362 1193.2 356.6 1191.7 351.8C1190 346.6 1188.4 341.4 1186.7 336.3C1186.4 335.2 1185.9 334.2 1185.7 333.1C1185.2 331 1184.9 331 1187.4 330.8C1190.1 330.6 1191.5 332.7 1193.3 334.5C1196.7 337.9 1199.7 341.6 1202.4 345.5C1212.5 360.1 1218.1 377.3 1222.3 394.4C1222.8 396.3 1225.7 395.5 1225.2 393.6C1219.8 371.8 1211.9 349.4 1195.9 332.9C1193.7 330.6 1189.5 325.3 1185.8 325.9C1183 326.4 1182.2 329.4 1182.4 331.9C1182.8 337.5 1185.8 343.6 1187.6 349C1189.6 355.2 1190.9 362.4 1194.7 367.8C1195 367.1 1195.3 366.3 1195.6 365.6C1189 366.6 1192.8 375.8 1194.6 379.4C1198.4 386.7 1204.5 392.3 1211.9 395.8C1213.6 396.4 1215.1 393.8 1213.4 393V393Z" fill="#E5E7EB"/>
<path d="M1216.8 365.6C1216.5 352.9 1216.2 339.7 1220.5 327.6C1222.6 321.7 1225.8 316.4 1229.5 311.4C1230.4 310.1 1231.4 308 1232.8 307.2C1233.8 305.6 1235.3 305.4 1237.2 306.7C1239.6 306.1 1240.8 306.7 1240.8 308.5C1242 311.2 1241.6 315.8 1241.6 318.6C1241.6 325.3 1240 331.5 1238.4 337.9C1237.8 340.1 1237.3 342.4 1237.5 344.6C1237.7 347.2 1239.1 349.2 1239.8 351.6C1241.8 358.4 1238.3 365.4 1235.9 371.6C1233.5 378.1 1231 384.6 1228.6 391.2C1227.9 393 1230.8 393.8 1231.5 392C1234.7 383.4 1238.1 374.9 1241.1 366.2C1243.2 360.1 1244.2 354.8 1241.8 348.8C1238.6 340.7 1243.7 331.6 1244.4 323.3C1244.8 317.9 1245.7 308.7 1242.2 303.9C1234.6 293.4 1222.5 315.8 1220.1 320.8C1213.3 334.8 1213.4 350.5 1213.8 365.7C1213.9 367.6 1216.9 367.6 1216.8 365.6Z" fill="#E5E7EB"/>
<path d="M1191.6 341C1201.5 354.9 1207.4 371.6 1214.3 387.1C1215.1 388.9 1217.7 387.3 1216.9 385.6C1210.1 370 1204.1 353.4 1194.2 339.5C1193.1 337.9 1190.5 339.4 1191.6 341V341Z" fill="#E5E7EB"/>
<path d="M1219.2 333.9C1219.6 339.2 1221.4 343.9 1224.7 348C1225.9 349.5 1228 347.4 1226.8 345.9C1224.1 342.4 1222.5 338.3 1222.2 333.9C1222.1 332 1219.1 332 1219.2 333.9V333.9Z" fill="#E5E7EB"/>
<path d="M1232.8 333.2C1235.2 329.6 1237.7 326 1240.1 322.4C1241.2 320.8 1238.6 319.3 1237.5 320.9C1235.1 324.5 1232.6 328.1 1230.2 331.7C1229.2 333.3 1231.8 334.8 1232.8 333.2V333.2Z" fill="#E5E7EB"/>
<path d="M1262.6 331.2C1260.1 335.2 1256.5 338.3 1253.2 341.5C1249.6 344.9 1246 348.4 1242.4 351.8C1241 353.1 1243.1 355.3 1244.5 353.9C1251.4 347.3 1260.1 340.9 1265.2 332.7C1266.2 331.1 1263.6 329.6 1262.6 331.2V331.2Z" fill="#E5E7EB"/>
<path d="M1261.3 335.2C1261.5 340.5 1270.3 350.3 1263.5 353.5C1262.6 354 1262.6 355.2 1263.2 355.9C1265.5 358.7 1264 362.9 1263.7 366.2C1263.4 369.9 1263.7 373.6 1262.7 377.2C1260.9 384.1 1254.5 388.2 1248.8 391.8C1247.2 392.8 1248.7 395.4 1250.3 394.4C1257.2 390 1264.3 385 1265.9 376.4C1266.7 371.8 1266.7 367 1267.1 362.4C1267.5 359.1 1267.4 356.5 1265.2 353.9C1265.1 354.7 1265 355.5 1264.9 356.3C1274.4 351.8 1264.4 341.6 1264.2 335.4C1264.2 333.3 1261.2 333.3 1261.3 335.2V335.2Z" fill="#E5E7EB"/>
<path d="M1256.5 349.9C1249.6 361 1243.7 372.6 1238.8 384.8C1238.1 386.6 1241 387.4 1241.7 385.6C1246.5 373.7 1252.3 362.3 1259.1 351.4C1260.1 349.7 1257.5 348.2 1256.5 349.9V349.9Z" fill="#E5E7EB"/>
<path d="M1210.1 427.8C1214.1 433.2 1219.6 436.9 1226.2 438.3C1228.1 438.7 1228.9 435.8 1227 435.4C1221.2 434.2 1216.2 431.1 1212.7 426.3C1211.6 424.8 1209 426.3 1210.1 427.8V427.8Z" fill="#E5E7EB"/>
<path d="M1208.4 415.5C1218.7 423.4 1229.6 434.7 1242.8 437.4C1244.7 437.8 1245.5 434.9 1243.6 434.5C1230.8 431.9 1220 420.6 1209.9 412.9C1208.4 411.7 1206.9 414.3 1208.4 415.5V415.5Z" fill="#E5E7EB"/>
<path d="M1216.3 407.9C1222.5 413 1228.5 418.2 1234.8 423.1C1237.5 425.2 1240.3 427.2 1243.6 428.5C1246.7 429.8 1250 430.4 1252.8 432.4C1254.4 433.5 1255.9 430.9 1254.3 429.8C1252.1 428.3 1249.9 427.6 1247.5 426.7C1243.4 425.3 1240.1 423.4 1236.7 420.7C1230.5 415.9 1224.5 410.8 1218.5 405.8C1216.9 404.6 1214.8 406.7 1216.3 407.9V407.9Z" fill="#E5E7EB"/>
<path d="M1232.7 406.5C1238.5 412.5 1245.5 416.9 1253.5 419.5C1255.3 420.1 1256.1 417.2 1254.3 416.6C1246.8 414.1 1240.3 410 1234.8 404.3C1233.5 403 1231.3 405.1 1232.7 406.5V406.5Z" fill="#E5E7EB"/>
<path d="M1306.3 435.6C1305.7 434 1304.8 431.9 1304.9 430.2C1305.3 425.8 1308.3 425.4 1311.2 424.9C1315.4 424.1 1319.8 424 1324.1 424C1331.4 423.9 1338.8 424.5 1346.1 424.8C1353.4 425 1360.6 424.6 1367.9 424C1370.9 423.7 1376.2 422.5 1379.1 423.5C1382.1 424.6 1382.9 426.1 1383 428.9C1383.1 431.1 1383.1 433.3 1383.2 435.6C1383.3 437.5 1386.3 437.5 1386.2 435.6C1386.1 432.2 1387.1 426.2 1385.4 423C1383.8 420.2 1380.1 420.5 1377.3 420.5C1365.9 420.5 1354.8 422.2 1343.3 421.7C1332.7 421.3 1322 420.4 1311.5 422C1302.9 423.3 1300.7 428.6 1303.6 436.6C1304 438.2 1306.9 437.4 1306.3 435.6V435.6Z" fill="#E5E7EB"/>
<path d="M1327.5 419.5C1328.3 417.7 1329 415.9 1329.8 414.1C1330.7 414 1331.6 413.9 1332.5 413.7C1333.7 413.6 1334.8 413.7 1336 413.6C1338.6 413.6 1341.1 413.5 1343.7 413.5C1349.2 413.4 1354.6 413.4 1360.1 413.3C1365.2 413.2 1370.4 413.2 1375.5 413.1C1376.8 413.1 1378.1 413.1 1379.4 413C1381 413 1381.5 412.6 1382 413.8C1382.6 415.3 1381.5 419.5 1381.3 421.1C1381.1 423 1384.1 423 1384.3 421.1C1384.5 418.7 1386 413.7 1384.8 411.5C1383.8 409.7 1382.3 410 1380.3 410C1370.7 410 1361 410.3 1351.4 410.4C1346.9 410.5 1342.4 410.5 1337.9 410.6C1334.5 410.6 1330.3 410.2 1327.2 411.8C1323.6 413.7 1321.9 418.6 1325.4 421.5C1326.9 422.8 1329 420.7 1327.5 419.5V419.5Z" fill="#E5E7EB"/>
<path d="M1348.1 407.3C1345.5 403.8 1356.4 404.2 1357.1 404.1C1359.5 403.9 1367.7 402.4 1366.1 407.8C1365.5 409.7 1368.4 410.4 1369 408.6C1369.7 406.2 1368.9 404 1367 402.4C1363.7 399.7 1359.6 401 1355.7 401.2C1352.6 401.3 1348.9 400.3 1346.4 402.7C1344.6 404.3 1344.1 406.8 1345.5 408.8C1346.7 410.3 1349.3 408.8 1348.1 407.3V407.3Z" fill="#E5E7EB"/>
<path d="M1195.1 456C1198.9 461.2 1203.4 465.5 1208.7 469.1C1210.3 470.2 1211.8 467.6 1210.2 466.5C1205.4 463.2 1201.1 459.2 1197.7 454.4C1196.5 452.9 1193.9 454.4 1195.1 456V456Z" fill="#E5E7EB"/>
<path d="M1208.3 468.1C1211.6 468.1 1214.9 468.1 1218.2 468.1C1220.1 468.1 1223.2 468.6 1224.9 467.7C1226.2 467 1226.6 465.4 1227.2 464.2C1228.8 461 1230.7 458 1232.9 455.1C1234.1 453.6 1232 451.5 1230.8 453C1229.7 454.3 1228.7 455.7 1227.7 457.1C1226.5 459 1225.7 461.7 1224.3 463.4C1221.5 466.7 1212.4 465.2 1208.3 465.1C1206.4 465.1 1206.4 468.1 1208.3 468.1V468.1Z" fill="#E5E7EB"/>
<path d="M1219.4 455.8C1220.2 458.8 1221 461.9 1221.9 464.9C1222.4 466.8 1225.3 466 1224.8 464.1C1224 461.1 1223.2 458 1222.3 455C1221.8 453.1 1218.9 453.9 1219.4 455.8V455.8Z" fill="#E5E7EB"/>
<path d="M1341.3 455.3C1342.9 458.6 1344.6 461.8 1346.7 464.8C1347.8 466.4 1349.2 468.9 1351.1 469.8C1353.1 470.8 1355.9 470 1357.9 469.8C1361.5 469.4 1365.1 469.1 1368.7 468.7C1370.6 468.5 1370.6 465.5 1368.7 465.7C1366.3 465.9 1363.9 466.2 1361.5 466.4C1359.4 466.6 1356.3 467.5 1354.3 467.1C1349.1 466.1 1345.9 457.9 1343.9 453.7C1343 452 1340.4 453.5 1341.3 455.3V455.3Z" fill="#E5E7EB"/>
<path d="M1368.8 452.8C1367.6 457.1 1367 461.5 1367.1 465.9C1367.2 467.8 1370.2 467.8 1370.1 465.9C1370 461.7 1370.5 457.6 1371.6 453.6C1372.2 451.8 1369.3 451 1368.8 452.8V452.8Z" fill="#E5E7EB"/>
<path d="M1370.1 467.4C1374.1 463.6 1377.9 459.6 1381.6 455.5C1382.9 454.1 1380.8 451.9 1379.5 453.4C1375.8 457.5 1372 461.5 1368 465.3C1366.6 466.6 1368.7 468.7 1370.1 467.4V467.4Z" fill="#E5E7EB"/>
<path d="M727.9 162.4C727.9 190.6 727.9 218.7 727.9 246.9C727.9 248.8 730.9 248.8 730.9 246.9C730.9 218.7 730.9 190.6 730.9 162.4C730.9 160.5 727.9 160.5 727.9 162.4V162.4Z" fill="#E5E7EB"/>
<path d="M730.3 249.2C766 249.2 801.8 249.2 837.5 249.2C839.4 249.2 839.4 246.2 837.5 246.2C801.8 246.2 766 246.2 730.3 246.2C728.3 246.2 728.3 249.2 730.3 249.2V249.2Z" fill="#E5E7EB"/>
<path d="M730.3 163.9C765 163.9 799.6 163.9 834.3 163.9C836.2 163.9 836.2 160.9 834.3 160.9C799.6 160.9 765 160.9 730.3 160.9C728.3 160.9 728.3 163.9 730.3 163.9V163.9Z" fill="#E5E7EB"/>
<path d="M834.3 162.4C834.3 190.6 834.3 218.7 834.3 246.9C834.3 248.8 837.3 248.8 837.3 246.9C837.3 218.7 837.3 190.6 837.3 162.4C837.3 160.5 834.3 160.5 834.3 162.4V162.4Z" fill="#E5E7EB"/>
<path d="M783.7 159.9C783.6 158.6 783.8 157.4 784.4 156.2C784.7 155.5 785.9 153.7 786.6 154.2C787.4 154.7 787.7 157 787.8 157.8C788.1 159.3 788.1 160.8 787.9 162.3C787.7 164.2 790.7 164.2 790.9 162.3C791.1 159.7 790.9 157.1 790 154.6C789.4 153 788.6 151.1 786.7 150.9C782.6 150.4 780.5 156.7 780.7 159.8C780.8 161.9 783.8 161.9 783.7 159.9V159.9Z" fill="#E5E7EB"/>
<path d="M733.6 172.1C733.6 194.6 733.6 217 733.6 239.5C733.6 241.4 736.6 241.4 736.6 239.5C736.6 217 736.6 194.6 736.6 172.1C736.6 170.2 733.6 170.2 733.6 172.1V172.1Z" fill="#E5E7EB"/>
<path d="M735.1 241C766.5 241 797.9 241 829.3 241C831.2 241 831.2 238 829.3 238C797.9 238 766.5 238 735.1 238C733.2 238 733.2 241 735.1 241V241Z" fill="#E5E7EB"/>
<path d="M831.7 238.7C831.7 216.2 831.7 193.8 831.7 171.3C831.7 169.4 828.7 169.4 828.7 171.3C828.7 193.8 828.7 216.2 828.7 238.7C828.7 240.7 831.7 240.7 831.7 238.7V238.7Z" fill="#E5E7EB"/>
<path d="M735.9 174.4C766.2 174.4 796.5 174.4 826.9 174.4C828.8 174.4 828.8 171.4 826.9 171.4C796.6 171.4 766.3 171.4 735.9 171.4C734 171.4 734 174.4 735.9 174.4V174.4Z" fill="#E5E7EB"/>
<path d="M736.4 225.1C748.1 221.6 760 218.5 771.6 223.9C779.9 227.8 787.1 233.7 796.4 235.4C798.3 235.7 799.1 232.9 797.2 232.5C786.6 230.5 778.6 222.8 768.5 219.4C757.6 215.8 746.2 219 735.6 222.2C733.8 222.8 734.6 225.7 736.4 225.1V225.1Z" fill="#E5E7EB"/>
<path d="M775.4 223.4C789.7 218.4 804.6 216.6 819.6 218.1C821.5 218.3 821.5 215.3 819.6 215.1C804.3 213.6 789.1 215.4 774.6 220.5C772.8 221.2 773.6 224.1 775.4 223.4V223.4Z" fill="#E5E7EB"/>
<path d="M778.5 200.2C777.4 198.3 777.7 195.5 779.6 194.2C781.3 193 784 193.5 785.2 195.1C786.4 196.8 785.7 199.5 783.8 200.5C781.6 201.6 779.1 199.5 779.1 197.3C779.1 195.4 776.1 195.4 776.1 197.3C776 201.3 780.1 204.7 784.1 203.6C787.8 202.6 789.8 197.9 788.2 194.5C786.6 190.9 781.8 189.6 778.4 191.4C774.7 193.4 773.8 198.3 775.8 201.8C776.9 203.4 779.4 201.9 778.5 200.2V200.2Z" fill="#E5E7EB"/>
<path d="M1265.6 176.9C1269.2 181.7 1269.9 188.2 1274.3 192.4C1278.4 196.4 1283.3 195.8 1288.3 194C1290.1 193.4 1289.3 190.5 1287.5 191.1C1284.8 192 1281.7 193 1278.9 191.9C1276.5 190.9 1274.9 188.7 1273.7 186.4C1271.8 182.7 1270.7 178.7 1268.2 175.3C1267 173.8 1264.4 175.3 1265.6 176.9V176.9Z" fill="#E5E7EB"/>
<path d="M1287.9 192.8C1292.7 188.7 1296.9 184 1300.5 178.8C1301.6 177.2 1299 175.7 1297.9 177.3C1294.5 182.3 1290.4 186.8 1285.8 190.7C1284.3 191.9 1286.4 194.1 1287.9 192.8V192.8Z" fill="#E5E7EB"/>
<path d="M1280.6 175.8C1282 179.1 1282.6 182.5 1282.5 186C1282.4 187.9 1285.4 187.9 1285.5 186C1285.6 181.9 1284.8 178 1283.2 174.3C1282.5 172.5 1279.9 174 1280.6 175.8V175.8Z" fill="#E5E7EB"/>
<path d="M1200.5 567C1200.5 580.3 1200.5 593.7 1200.5 607C1200.5 608.9 1203.5 608.9 1203.5 607C1203.5 593.7 1203.5 580.3 1203.5 567C1203.5 565.1 1200.5 565.1 1200.5 567V567Z" fill="#E5E7EB"/>
<path d="M1164 612.5C1199.3 612.5 1234.7 612.5 1270 612.5C1271.9 612.5 1271.9 609.5 1270 609.5C1234.7 609.5 1199.3 609.5 1164 609.5C1162.1 609.5 1162.1 612.5 1164 612.5V612.5Z" fill="#E5E7EB"/>
<path d="M1221.5 615C1221.5 623.3 1221.5 631.7 1221.5 640C1221.5 641.9 1224.5 641.9 1224.5 640C1224.5 631.7 1224.5 623.3 1224.5 615C1224.5 613.1 1221.5 613.1 1221.5 615V615Z" fill="#E5E7EB"/>
<path d="M1163 644.5C1194.3 644.5 1225.7 644.5 1257 644.5C1258.9 644.5 1258.9 641.5 1257 641.5C1225.7 641.5 1194.3 641.5 1163 641.5C1161.1 641.5 1161.1 644.5 1163 644.5V644.5Z" fill="#E5E7EB"/>
<path d="M1186.5 647C1186.5 653.3 1186.5 659.7 1186.5 666C1186.5 667.9 1189.5 667.9 1189.5 666C1189.5 659.7 1189.5 653.3 1189.5 647C1189.5 645.1 1186.5 645.1 1186.5 647V647Z" fill="#E5E7EB"/>
<path d="M1196.5 162.8C1196.5 158.6 1195.7 153.3 1196.5 149.2C1197.6 143.4 1205.7 144.5 1210.4 144.2C1212.3 144.1 1212.3 141.1 1210.4 141.2C1206.6 141.4 1202.6 141.4 1198.8 142C1197.1 142.3 1195.6 142.8 1194.6 144.3C1193.4 146.1 1193.6 148.6 1193.6 150.7C1193.6 154.7 1193.6 158.8 1193.6 162.8C1193.5 164.8 1196.5 164.8 1196.5 162.8V162.8Z" fill="#E5E7EB"/>
<path d="M1178.9 51.1C1188 48.6 1197.1 49.2 1205.8 52.7C1207.6 53.4 1208.4 50.5 1206.6 49.8C1197.4 46.1 1187.7 45.6 1178.1 48.2C1176.2 48.8 1177 51.7 1178.9 51.1V51.1Z" fill="#E5E7EB"/>
<path d="M1175.2 42.1C1183.2 36.6 1192.8 35.6 1201.8 39.2C1203.6 39.9 1204.4 37 1202.6 36.3C1193 32.4 1182.2 33.6 1173.7 39.5C1172.1 40.6 1173.6 43.2 1175.2 42.1V42.1Z" fill="#E5E7EB"/>
<path d="M1142.7 94.5C1139.5 96.7 1133.4 99.6 1132.5 103.8C1132.1 106 1133.1 108 1133.9 110C1135.3 113.5 1136.7 117 1138.2 120.5C1144 134.2 1150.5 147.6 1157.7 160.6C1158.6 162.3 1161.2 160.8 1160.3 159.1C1154.8 149.1 1149.7 138.9 1145 128.5C1142.5 123 1140.1 117.4 1137.9 111.8C1136.6 108.5 1134.8 105.6 1137.2 102.2C1138.6 100.2 1142.2 98.5 1144.3 97.1C1145.8 96 1144.3 93.4 1142.7 94.5V94.5Z" fill="#E5E7EB"/>
<path d="M722.2 584.6C714 590.7 704.1 600.5 700.5 614.5C697.9 624.9 700.4 631 699.5 644.4C698.9 653.7 696.5 666.8 688.8 682.4C671.3 678.8 641.9 675.3 607.2 683.3C586.5 688.1 569.9 695.6 557.7 702.4C559.6 703.6 562.2 705 565.5 705.9C584.2 711 603.9 695.3 604.5 696.4C605.1 697.4 582.5 708 583.7 717.2C584.5 723.4 595.6 726.7 607.1 730.2C616.8 733.1 626 735.9 638.3 734.5C655.2 732.6 666.9 724.1 672.1 719.7C677.1 722.2 684.5 725.5 693.8 728.4C710.9 733.6 734.5 740.8 750.2 731C760.4 724.6 763.5 709.6 769.3 679.8C776.3 643.5 779.6 625.3 770.2 610.4C757.9 590.5 732.6 585.9 722.2 584.6Z" fill="white" stroke="#161616" stroke-width="3"/>
<path d="M685.6 683.5C697.7 688 707.7 696.2 714.6 707.1C715.6 708.7 718.2 707.2 717.2 705.6C709.9 694 699.2 685.4 686.4 680.6C684.5 679.9 683.8 682.8 685.6 683.5Z" fill="#161616"/>
<path d="M621.2 703.2C609.3 705.2 599.7 713.2 595.4 724.4C594.7 726.2 597.6 727 598.3 725.2C602.2 715 611.2 707.9 622 706.1C623.9 705.8 623.1 702.9 621.2 703.2Z" fill="#161616"/>
<path d="M635.2 713.2C630.9 715.8 626.9 718.8 623.1 722C620.6 724.2 617.8 726.8 618.4 730.4C619.9 739.9 631.3 737.8 637.5 735.4C639.3 734.7 638.5 731.8 636.7 732.5C634 733.5 631 734.8 628.1 734.7C623.4 734.5 619.2 730 623.2 725.9C627 721.9 632 718.7 636.7 715.7C638.3 714.7 636.8 712.1 635.2 713.2Z" fill="#161616"/>
<path d="M815.5 461.5C810.4 463.2 803.9 465.8 796.6 469.4C794.5 470.4 789.2 473.1 783.5 476.8C774.7 482.4 768.3 488.3 761 495.7C751.7 505.2 742.3 514.7 731.1 529.9C721.7 542.7 707.1 562.8 696.6 592.3C692.4 604 690 614.1 688.6 621.3C694.1 618.1 699.1 616.5 703 615.6C725.5 610.5 747.1 621.9 767.6 632.6C775.3 636.6 781.4 640.5 785.6 643.2C787.8 632.4 790 621.5 792.2 610.7C794.1 601.6 795.9 592.4 797.8 583.3C800.7 580.8 804.6 577.1 808.9 572.3C817 563.1 833.1 544.8 835.3 519.4C838 490.1 820.6 467.7 815.5 461.5Z" fill="#38BDF8"/>
<path d="M809.6 462.7C798.9 464.3 789.7 470 781.4 476.6C771.8 484.1 762.8 492.4 754.4 501.2C738 518.2 723.7 537.2 711.9 557.7C710.9 559.4 713.5 560.9 714.5 559.2C725.9 539.4 739.5 521 755.3 504.5C763 496.5 771.1 488.9 779.6 481.8C788.7 474.3 798.4 467.3 810.4 465.5C812.3 465.3 811.5 462.4 809.6 462.7Z" fill="#161616"/>
<path d="M805.4 571.9C798 579.4 790.4 586.7 782.7 593.8C781.3 595.1 783.4 597.2 784.8 595.9C792.5 588.8 800.1 581.5 807.5 574C808.8 572.6 806.7 570.5 805.4 571.9Z" fill="#161616"/>
<path d="M795 585.6C791.5 604.8 788.1 624.1 784.6 643.3C785.3 643 786.1 642.7 786.8 642.4C770.9 631.3 753.2 623 734.4 617.8C719.7 613.8 701 609.9 688.4 621C687 622.3 689.1 624.4 690.5 623.1C703.3 611.7 724 617.7 738.5 622.1C755.2 627.2 770.9 635 785.2 644.9C786 645.4 787.2 644.9 787.4 644C790.9 624.8 794.3 605.5 797.8 586.3C798.2 584.5 795.3 583.7 795 585.6Z" fill="#161616"/>
<path d="M712.6 556.3C702.2 576.6 689.2 597.5 688.3 621C688.2 622.9 691.2 622.9 691.3 621C692.2 598.1 705 577.7 715.2 557.8C716 556.1 713.4 554.6 712.6 556.3Z" fill="#161616"/>
<path opacity="0.4" d="M801.5 518.5C783.6 554.1 773.9 584.1 768.2 605.1C759.9 635.9 757 660.2 735.5 680.4C732 683.7 721.7 693.2 705.5 699.1C671.5 711.4 646.3 694.8 624.9 712.4C622.5 714.4 615.4 719.4 616.2 725.1C617 730.5 624.4 733.3 625.5 733.8C634.3 737.2 643.4 733.7 654.8 729.1C667.7 723.9 666.3 722.1 672.1 721.1C684.3 719 689.9 726.7 706.1 731.8C713 733.9 733.4 740.3 748.1 731.8C758.9 725.5 762.2 713.7 767.4 693.8C771 680.3 774.7 660.6 774.1 635.8C778.1 638.9 782.1 642 786.1 645.1C791.3 602.9 796.4 560.7 801.5 518.5Z" fill="#3D3D3D"/>
<path opacity="0.38" d="M795.5 561.8C781.8 587.7 775.1 609.6 771.5 624.4C764.3 654.1 766.6 668.1 756.8 689C746.3 711.7 729.3 726.1 717.5 734.3C724.1 735.8 740 738.6 751.5 729.6C759.6 723.3 761.7 714.3 764.8 699.6C768.7 681.5 772.8 660.9 776.8 638.3C779.9 640.3 783 642.3 786.1 644.3C789.3 616.9 792.4 589.3 795.5 561.8Z" fill="#3D3D3D"/>
<path d="M813.4 459.5C809.8 483 806.3 506.7 802.9 530.5C789.7 622.8 778.3 713.5 768.7 802.7C768.9 805.7 769.7 810.5 772.7 815.3C775.7 820.2 779.7 822.7 781.6 824C799.8 837 808.9 843.6 818.1 848C862.2 869.3 911 866.8 911 866.8C921.3 866.3 941.8 865 963.8 856.2C965 855.7 973.4 851.8 990.2 843.9C1005.4 836.8 1008.1 835.4 1011.8 832C1020.6 823.9 1024 813.9 1026.3 806.8C1031.2 791.7 1030.7 778.9 1030.5 775.8C1030.5 775.8 1029.5 750.9 1028.8 605.5C1028.7 575.9 1031.6 532.4 1047.2 478.7C1031 470.8 1015.8 463.5 997.5 454.7C984.9 448.6 973.2 443 956.4 441C951.6 440.4 947.3 440.2 940.9 440.3C914.9 440.5 893.5 444.5 884.3 446.1C866.4 449 842.2 453.4 813.4 459.5Z" fill="#38BDF8"/>
<path d="M812.6 463C843.6 456.4 874.9 451.1 906.3 447.2C907.7 447 908.5 445.2 907.1 444.4C906.7 444.2 906.3 443.9 905.8 443.7C904.1 442.7 902.6 445.3 904.3 446.3C904.7 446.5 905.1 446.8 905.6 447C905.9 446.1 906.1 445.1 906.4 444.2C874.7 448.1 843.1 453.4 811.9 460.1C809.9 460.5 810.7 463.4 812.6 463Z" fill="#161616"/>
<path d="M803.3 515.4C792.3 593.8 782.3 672.3 773.3 751C772.2 760.9 771.1 770.7 770 780.6C769.1 789.2 766.6 798.9 767.7 807.5C768.7 815.1 774.7 819.9 780.2 824.5C786.2 829.5 792.5 834.2 799.1 838.5C826.2 856 857.9 866.5 890.1 868.4C928.4 870.6 966.9 860.8 999.6 840.8C1001.2 839.8 999.7 837.2 998.1 838.2C940.9 873.1 868.1 874.5 809.8 841.4C803.1 837.6 796.6 833.4 790.4 828.8C784.1 824.1 773.9 817.7 771.3 810C770.1 806.3 770.7 802.2 771.1 798.3C771.6 793.4 772.2 788.4 772.7 783.5C773.7 774.3 774.7 765.1 775.8 755.9C780.1 718.4 784.5 681 789.3 643.6C794.7 601.1 800.3 558.6 806.3 516.2C806.5 514.3 803.6 513.5 803.3 515.4Z" fill="#161616"/>
<path d="M950.6 440.1C968.2 443.6 984.7 451.7 1001.1 458.6C1017.2 465.4 1035.1 470.9 1049.3 481.3C1050.9 482.4 1052.4 479.8 1050.8 478.7C1036.9 468.5 1019.4 463.1 1003.7 456.5C986.7 449.4 969.6 440.9 951.4 437.2C949.5 436.8 948.7 439.7 950.6 440.1Z" fill="#161616"/>
<path d="M1029 609.7C1027.4 651.8 1025.8 693.9 1027.3 735.9C1028 756.3 1031.2 777.5 1027.4 797.8C1024.2 814.5 1014.8 831.2 998.1 837.4C996.3 838.1 997.1 841 998.9 840.3C1025.5 830.4 1032.4 800.1 1032 774.7C1031.8 757.5 1030.3 740.3 1029.9 723C1029.5 705.4 1029.7 687.9 1030 670.3C1030.4 650.1 1031.2 629.9 1031.9 609.7C1032.1 607.7 1029.1 607.7 1029 609.7Z" fill="#161616"/>
<path opacity="0.38" d="M1014.6 586C1009.3 604.2 1001 624.1 988.2 643.9C930.9 732 826 749.6 799.2 753.3C835.2 757.1 871.6 761.2 908.4 765.6C949 770.4 989.1 775.5 1028.6 780.7C1026.1 736 1026.1 699.2 1026.7 672.9C1027.8 618.5 1031.7 574.5 1024.6 573.1C1022.9 572.7 1019.9 574.6 1014.6 586Z" fill="#3D3D3D"/>
<path opacity="0.42" d="M1026.9 618.7C1023.3 629.3 1017.8 644.3 1009.7 661.6C998.3 686.1 987.4 709.7 973.3 724.2C933.9 764.7 856.9 747.2 856.7 750C856.6 751.6 884.8 756.1 1027.2 769.2C1027.2 719 1027.1 668.9 1026.9 618.7Z" fill="#3D3D3D"/>
<g filter="url(#filter0_d_0_628)">
<path d="M1206.3 1031C839.3 982 472.2 933 105.2 884.1C213.5 821.3 321.9 758.5 430.2 695.7C761.3 728.3 1092.5 761 1423.6 793.6C1351.1 872.7 1278.7 951.9 1206.3 1031Z" fill="white" stroke="#161616" stroke-width="3"/>
<path d="M101.6 892.6C469.5 941.4 837.4 990.2 1205.2 1039" stroke="#161616" stroke-width="16"/>
<path d="M1198.2 1041.2C1275.3 959.7 1352.4 878.1 1429.4 796.6" stroke="#161616" stroke-width="16"/>
<path d="M1075.4 827C1037.9 856.3 1001.2 886.5 965.1 917.5C963.6 918.8 965.8 920.9 967.2 919.6C1003.3 888.6 1040.1 858.4 1077.5 829.1C1079 828 1076.9 825.8 1075.4 827Z" fill="#161616"/>
<path d="M966.5 919.1C978.3 921.6 990.3 921.6 1002.4 921.7C1016 921.9 1028.8 923.3 1041.8 927.1C1066.2 934.2 1090.1 938.9 1115.6 938.3C1117.5 938.3 1117.5 935.3 1115.6 935.3C1102.5 935.6 1089.4 934.8 1076.4 932.7C1064.2 930.7 1052.6 927.1 1040.7 923.8C1029.3 920.6 1017.9 919.1 1006 918.9C993 918.6 980 919 967.2 916.3C965.4 915.8 964.6 918.7 966.5 919.1Z" fill="#161616"/>
<path d="M1077.6 829.2C1117.2 832.4 1156.5 838.7 1195.1 848.1C1197 848.6 1197.8 845.7 1195.9 845.2C1157.1 835.7 1117.5 829.4 1077.6 826.2C1075.7 826 1075.7 829 1077.6 829.2Z" fill="#161616"/>
<path d="M1117.9 936.5C1145.8 908.9 1172.6 880.1 1198 850.1C1199.2 848.6 1197.1 846.5 1195.9 848C1170.5 877.9 1143.7 906.7 1115.8 934.4C1114.4 935.8 1116.5 937.9 1117.9 936.5Z" fill="#161616"/>
<path d="M1001.4 907.2C1035.8 903 1070.6 907.3 1102.9 919.9C1104.7 920.6 1105.5 917.7 1103.7 917C1071.2 904.4 1036 900 1001.4 904.2C999.5 904.4 999.5 907.4 1001.4 907.2Z" fill="#161616"/>
<path d="M1053.5 896.2C1074.7 897.8 1095.6 901.1 1116.3 906C1118.2 906.5 1119 903.6 1117.1 903.1C1096.2 898.1 1075 894.8 1053.5 893.2C1051.5 893.1 1051.6 896.1 1053.5 896.2Z" fill="#161616"/>
<path d="M1037.6 874.1C1069.5 874.8 1101.1 879.4 1131.9 887.9C1133.8 888.4 1134.6 885.5 1132.7 885C1101.7 876.5 1069.8 871.8 1037.6 871.1C1035.7 871.1 1035.7 874.1 1037.6 874.1Z" fill="#161616"/>
<path d="M1077.2 864.9C1094.4 867.3 1111.4 870.3 1128.4 873.9C1130.3 874.3 1131.1 871.4 1129.2 871C1112.2 867.4 1095.2 864.4 1078 862C1076.1 861.7 1075.3 864.6 1077.2 864.9Z" fill="#161616"/>
<path d="M1055.3 932C1049.2 941.4 1043.1 950.8 1036.9 960.1C1036.3 961 1037.1 962.5 1038.2 962.4C1087.5 956.8 1137.5 960 1185.7 971.8C1187.6 972.3 1188.4 969.4 1186.5 968.9C1138 957 1087.8 953.8 1038.2 959.3C1038.6 960.1 1039.1 960.8 1039.5 961.6C1045.6 952.2 1051.7 942.8 1057.9 933.5C1059 931.9 1056.4 930.4 1055.3 932Z" fill="#161616"/>
<path d="M1176.2 875.2C1195.5 874.8 1214.7 874.4 1234 874C1233.5 873.4 1233 872.7 1232.6 872.1C1219.3 903.8 1205.9 935.4 1192.6 967.1C1191.9 968.9 1194.8 969.7 1195.5 967.9C1208.8 936.2 1222.2 904.6 1235.5 872.9C1235.9 872 1234.9 871 1234.1 871C1214.8 871.4 1195.6 871.8 1176.3 872.2C1174.3 872.3 1174.3 875.3 1176.2 875.2Z" fill="#161616"/>
<path d="M1103.1 949.7C1108.2 948.7 1113.3 948.5 1118.5 948.9C1120.4 949 1120.4 946 1118.5 945.9C1113 945.5 1107.7 945.8 1102.3 946.8C1100.4 947.1 1101.2 950 1103.1 949.7Z" fill="#161616"/>
<path d="M1131.5 950C1147.2 950.6 1162.9 952.1 1178.5 954.5C1180.4 954.8 1181.2 951.9 1179.3 951.6C1163.5 949.1 1147.5 947.6 1131.5 947C1129.6 946.9 1129.6 949.9 1131.5 950Z" fill="#161616"/>
<path d="M1132.4 931.2C1136.1 931.2 1139.8 931.2 1143.6 931.2C1145.5 931.2 1145.5 928.2 1143.6 928.2C1139.9 928.2 1136.2 928.2 1132.4 928.2C1130.5 928.2 1130.5 931.2 1132.4 931.2Z" fill="#161616"/>
<path d="M1155.7 930.9C1168 931.2 1180.2 932.4 1192.4 934.4C1194.3 934.7 1195.1 931.8 1193.2 931.5C1180.8 929.5 1168.3 928.3 1155.7 927.9C1153.8 927.9 1153.8 930.9 1155.7 930.9Z" fill="#161616"/>
<path d="M1153.8 913.8C1167.8 914 1181.7 914.8 1195.6 916.4C1197.5 916.6 1197.5 913.6 1195.6 913.4C1181.7 911.8 1167.8 910.9 1153.8 910.8C1151.9 910.7 1151.9 913.7 1153.8 913.8Z" fill="#161616"/>
<path d="M1059.9 947C1066.6 947.2 1073.2 946.4 1079.8 944.8C1081.7 944.3 1080.9 941.4 1079 941.9C1072.7 943.5 1066.4 944.2 1059.9 944C1058 944 1058 947 1059.9 947Z" fill="#161616"/>
<path d="M1107.4 790.3C1104.8 793.5 1101.8 800 1104.9 803.9C1106.8 806.3 1110.4 805.8 1113.1 805.9C1118 806.1 1122.9 806.4 1127.8 806.6C1147.7 807.5 1167.5 808.5 1187.4 809.4C1189.3 809.5 1189.3 806.5 1187.4 806.4C1172.7 805.7 1158.1 805 1143.4 804.3C1136.2 804 1129.1 803.6 1121.9 803.3C1118.4 803.1 1114.7 803.3 1111.2 802.8C1108.6 802.4 1106.7 802.3 1106.8 799.1C1106.9 796.6 1108 794.3 1109.5 792.4C1110.7 790.9 1108.6 788.7 1107.4 790.3Z" fill="#161616"/>
<path d="M1110.1 794.1C1126.9 794.7 1143.7 795.2 1160.5 795.8C1168.7 796.1 1177 796.3 1185.2 796.6C1192.6 796.9 1200.4 797.4 1205.7 803.1C1207 804.5 1209.1 802.4 1207.8 801C1203.8 796.6 1198.4 794.9 1192.6 794.1C1184 793 1175.1 793.2 1166.4 792.9C1147.6 792.3 1128.8 791.6 1110.1 791C1108.2 791.1 1108.2 794.1 1110.1 794.1Z" fill="#161616"/>
<path d="M1186.4 809.5C1194.1 809.6 1201.4 807.2 1207.6 802.6C1209.1 801.5 1207.6 798.9 1206.1 800C1200.3 804.3 1193.7 806.6 1186.4 806.5C1184.4 806.5 1184.4 809.5 1186.4 809.5Z" fill="#161616"/>
<path d="M1188.8 794.1C1184.6 796.9 1182.7 802.1 1184.1 806.9C1184.6 808.7 1187.5 808 1187 806.1C1186 802.6 1187.2 798.7 1190.3 796.6C1191.9 795.6 1190.4 793 1188.8 794.1Z" fill="#161616"/>
</g>
<path d="M459.1 434.6C456.6 429.4 449.5 429 445.7 432.9C441.6 437.1 439.7 445.2 440.1 450.9C441 462.4 452.2 467.8 455.2 478.1C456.6 482.8 463.8 484.3 466.2 479.5C470.2 471.6 475.8 464.8 480.8 457.6C485.2 451.2 491.9 441.3 489.5 433.1C488.5 429.6 485.4 426.6 481.6 426.2C477 425.7 473.8 428.5 471.1 431.9C468.4 435.4 466 439 464 442.9C462.2 446.3 460.8 450.3 457.3 452.2C460.2 453.4 463.2 454.6 466.1 455.8C464.8 451.5 463.5 447.2 462.3 443C459 444.9 455.6 446.9 452.3 448.8C456.8 453.9 464.5 454.6 469.9 450.3C472.4 448.3 473.8 445.6 475.5 443C476.3 441.8 477 440.7 478.2 439.9C479 439.3 480 438.9 481 438.6C483 438.5 482.9 438.3 480.8 438C479.8 436.3 478.8 434.5 477.8 432.8C477.8 433 477.8 433.3 477.8 433.5C479.3 431.6 480.7 429.6 482.2 427.7C482 427.8 481.8 427.8 481.6 427.9C474.3 430.2 477.4 441.8 484.8 439.5C485 439.4 485.2 439.4 485.4 439.3C488.1 438.5 489.6 436.2 489.8 433.5C489.8 433.3 489.8 433 489.8 432.8C489.9 430.7 488.5 428.7 486.8 427.6C481.8 424.4 474.4 427.5 470.3 430.8C468 432.7 466.4 434.9 464.8 437.4C463.8 439 462.7 442.4 460.8 440.2C456.8 435.7 449.1 440.5 450.8 446C452.1 450.3 453.4 454.6 454.6 458.8C455.7 462.6 460 464.3 463.4 462.4C468.5 459.7 471.3 455 473.8 450C475.3 447.1 476.8 444.3 478.7 441.7C479 441.2 481.7 438.4 481.6 437.9C479 435.7 477.7 435.8 477.5 438.2C477.3 439 477 439.7 476.7 440.4C471.7 452.5 461.7 461.7 455.8 473.3C459.5 473.8 463.1 474.3 466.8 474.7C464.9 468.2 460.6 463.5 456.5 458.3C454.8 456.1 452.9 453.7 452.3 451C451.9 449.1 452.1 447.4 452.6 445.6C452.9 444.4 453.3 443.3 453.8 442.2C455.5 439.8 453.8 439.2 448.8 440.5C452.1 447.6 462.4 441.5 459.1 434.6V434.6Z" fill="#38BDF8"/>
<path d="M465.6 467.4C474.4 456.8 482.1 445.5 488.5 433.4C492.1 426.6 481.7 420.5 478.1 427.3C472.2 438.6 465.3 449.2 457.1 458.9C452.2 464.8 460.6 473.3 465.6 467.4V467.4Z" fill="#38BDF8"/>
<path d="M489.3 297.7C487.7 308.2 488.1 318.5 490.9 328.8C492.4 334.4 501.1 332 499.6 326.4C497.3 317.8 496.6 308.9 498 300.1C498.8 294.4 490.1 292 489.3 297.7V297.7Z" fill="#4F46E5"/>
<path d="M492.7 302.3C503.7 307 512.5 297.8 512.9 287C512.9 286 512.3 283.3 512.7 282.4C512.5 282.4 512.3 282.4 512.2 282.4C513.1 282.7 513.8 283.2 514.2 284.1C515.8 286.1 516.6 288.7 518.3 290.7C521.8 294.8 526.6 295.4 531.7 295.7C534.2 295.8 537.2 295.5 538.7 297.9C540.2 300.2 539.4 304.1 539.2 306.7C539 310.3 538.7 314 538.4 317.6C538.3 318.5 537.4 321.9 538.7 320.6C537.9 321.5 534.6 321.7 533.5 322C526.9 323.5 520.1 324.1 513.4 323.7C509.9 323.5 504.6 323.9 502.6 320.8C500.8 317.9 500.7 313.5 501.2 310.2C498.5 310.6 495.7 310.9 493 311.3C495.4 316.6 497.7 321.9 500.1 327.3C501.7 330.8 507.5 329.8 508.3 326.2C510.7 315.4 507.4 304.1 510.8 293.5C508.3 294.2 505.8 294.8 503.3 295.5C506.2 299 505.5 306.5 506.2 310.8C507 315.8 508.4 320.4 510.7 324.8C512.8 328.6 519.4 327 519.1 322.5C518.3 310.5 517.5 298.4 516.8 286.4C513.9 286.8 510.9 287.2 508 287.6C512.2 298.9 512.8 310.7 509.5 322.3C511.7 321.4 513.9 320.5 516.1 319.6C510.5 315.3 506.3 309.7 503.4 303.3C501.5 299.2 494.8 301.3 495 305.6C495.2 309.6 495.3 313.6 495.5 317.6C498.5 317.6 501.5 317.6 504.5 317.6C504.3 312.6 504.5 307.7 505.5 302.8C505.9 301.1 506.3 299.3 506.8 297.6C507.1 296.5 507.5 295.3 507.9 294.2C509.2 292.6 509 292 507.3 292.4C512.1 299.2 512.7 309.4 511.9 317.3C514.7 316.5 517.5 315.8 520.3 315C518 310.3 516.5 305.3 515.9 300.1C515.6 297.4 515.5 294.7 515.7 292C515.7 291.6 516.2 288.8 516 288.6C515.3 288.7 514.6 288.7 513.9 288.8C514.3 289.6 514.7 290.3 515.1 291.1C519.7 300.5 521.1 311.1 520 321.5C522.8 320.7 525.6 320 528.4 319.2C526.6 315.3 525.2 311.2 524.4 307C524.1 305.2 523.9 303.4 524.1 301.6C524.2 300.6 524.4 299.6 524.7 298.6C525.8 297.4 525.9 296.9 525 297.2C523.8 297 522.7 296.9 521.5 296.7C523.1 297.5 524.1 305.4 524.4 307.2C525 311.5 524.9 316 524.3 320.3C527.2 320.3 530.1 320.3 533 320.3C531.9 317.1 531.1 313.8 530.6 310.5C530.1 307.3 530.4 304 529.4 300.9C531.6 307.8 531.2 315.1 529.2 321.9C531.9 321.5 534.7 321.2 537.4 320.8C536.2 318.2 535.2 315.4 534.7 312.5C534.4 311.1 534.3 309.7 534.2 308.3C534.2 307.7 534.1 307.1 534.2 306.5C534.5 305.1 533.8 305 532.2 306.1C531.3 305.4 530.4 304.7 529.5 304C535.2 313.8 523.8 324.7 514.1 323.3C515.2 324.7 516.3 326.2 517.4 327.6C517.3 325.8 516.7 323.2 517.3 321.5C516.6 322.4 515.9 323.3 515.2 324.2C513.5 325.3 522.6 324 518.8 323.6C513.6 323.1 512.8 331.1 517.6 332.4C522.4 333.7 526.8 336.3 531.9 335.7C536.3 335.2 539.6 332.6 541.4 328.7C543.3 324.6 543.7 319.8 543.1 315.3C542.8 312.8 542.2 310.5 541.2 308.3C540.8 307.3 540.3 306.3 539.8 305.3C539.5 304.7 539.1 304.1 538.7 303.5C538.3 302.6 538.1 302.8 538.3 304.1C541.1 304.9 543.9 305.6 546.7 306.4C546.8 304.5 547 302.7 547.1 300.8C544.2 301.2 541.2 301.6 538.3 302C540 307 539.7 311.6 537.7 316.5C535.5 321.9 544.2 324.2 546.4 318.9C548.9 312.6 549.1 306 547 299.6C545.4 294.7 538.5 295.7 538.2 300.8C538.1 302.7 537.9 304.5 537.8 306.4C537.5 310.8 544.3 312.7 546.2 308.7C548.4 303.9 547.8 297.7 542.7 295C538.3 292.7 532.4 294.7 530.3 299.2C527.4 305.4 533.9 310.9 534.5 316.9C534.8 319.7 534.8 325.3 531.7 326.7C528.7 328 523 324.5 520.2 323.7C519.8 326.6 519.4 329.6 519 332.5C528.1 333.3 528.3 321.3 522 317.4C518.9 315.5 514.7 314 511.4 316C507.3 318.5 508.5 323.5 508.6 327.5C508.7 329.3 509.9 331.6 511.9 331.8C527.9 334.1 542.5 321.3 539.4 304.6C538.8 301.3 537.5 297.6 533.8 296.9C530.7 296.3 527.6 298.1 526.3 300.9C523 308 526.9 318.5 529.9 325C531.6 328.7 537.1 327.4 538.1 323.9C540.1 317.2 540.7 310.3 539.5 303.4C538.6 298.2 537 291.4 530.5 291.2C516 290.9 522 314.7 524.5 322.2C525.8 326 532.4 326.9 533.2 322.2C534.4 314.5 534.3 306.8 532.3 299.2C531.1 294.7 528.7 285.9 522.2 288.2C517 290.1 515.4 297.6 515.4 302.5C515.4 309.7 518 316.8 521 323.1C523.1 327.6 529 324.8 529.4 320.8C530.3 312.4 529.6 303.9 527.2 295.8C525.5 290.1 522.4 278.6 514.8 278.9C507.4 279.1 507 288.6 507 294C507 302.7 509.2 311.1 513 319C515.1 323.4 521 320.7 521.4 316.7C522.2 309.6 521.5 302.4 519.3 295.6C517.7 290.6 515.1 283.4 509.1 282.7C502.5 282 500.2 289.6 498.7 294.5C496.5 301.7 495.8 309.3 496.1 316.9C496.4 322.7 505.3 322.7 505.1 316.9C504.9 312.9 504.8 308.9 504.6 304.9C501.8 305.7 499 306.4 496.2 307.2C499.8 315.1 505.3 321.5 512.1 326.7C514.5 328.5 518 326.5 518.7 324C522.5 311 522 297.2 517.2 284.5C515.5 280.1 508 280.3 508.4 285.7C509.2 297.7 510 309.8 510.7 321.8C513.5 321 516.3 320.3 519.1 319.5C513.9 309.8 517.4 296.9 510.3 288.3C508 285.5 503.7 287.3 502.8 290.3C499.3 301 502.7 312.2 500.3 323C503 322.6 505.8 322.3 508.5 321.9C506.1 316.6 503.8 311.3 501.4 305.9C499.9 302.5 493.8 303.3 493.2 307C492.1 314 492.6 323.8 498.7 328.6C501.5 330.8 505.2 331 508.7 331.4C513.4 331.9 518.2 332.1 523 331.8C527.6 331.5 532.1 330.8 536.6 329.8C539.6 329.1 543.6 328.6 545.7 326.2C548.4 323.3 547.9 318.6 548.2 314.9C548.5 310.5 549 306.2 549.1 301.8C549.2 294.6 546.3 288.3 538.9 286.5C535.9 285.8 532.8 286.2 529.7 285.7C524.9 285 524.4 280.9 521.8 277.5C518.5 273.1 511.4 270.3 506.9 274.6C504 277.4 504.6 281 504.7 284.6C504.8 287.8 503.2 295.9 498.1 293.7C492 292.3 487.4 300.1 492.7 302.3V302.3Z" fill="#4F46E5"/>
<path d="M227.7 352.1C234.7 358.5 241.3 365.4 247 373C250.8 378 254.7 388 261.5 389.4C265.5 390.2 268.7 388.1 271.7 385.7C275.8 382.4 279.8 379 283.9 375.6C288 372.2 292 368.9 296.1 365.5C299 363.1 302.3 360.9 302.5 356.8C302.7 352.9 300.2 350 297.9 347.1C294.7 343 291.4 338.9 288.2 334.8C285 330.7 281.7 326.6 278.5 322.5C276.1 319.5 273.9 315.5 269.9 314.6C266.3 313.8 263 315.9 260 317.5C256 319.6 252.1 322 248.4 324.5C241.1 329.5 234.3 335.2 228.1 341.6C226.2 343.6 226.4 347.3 229 348.7C235.5 352 241.7 355.9 247.3 360.7C249.8 362.8 252.2 365.1 254.5 367.5C255.6 368.7 256.7 369.9 257.8 371.2C258.5 372 259.2 372.9 259.9 373.7C260.8 376.1 262.1 376 263.7 373.2C264.1 375.9 264.4 378.7 264.8 381.4C275.2 375.1 284.7 367.3 292.9 358.3C296.3 354.5 292 348.7 287.4 351.2C280.4 355 273.2 358.1 265.7 360.5C267.4 362.7 269.1 364.9 270.8 367.1C275 360.4 280.2 354.6 286.3 349.5C283.9 347.7 281.6 345.9 279.2 344C273.7 352.2 266.8 359.4 258.9 365.3C261.1 367 263.3 368.7 265.5 370.4C268.1 361 273.4 352.7 281.3 346.8C279.2 344.7 277.2 342.7 275.1 340.6C270.6 349.5 264.3 357.1 256.2 362.9C257.7 362.9 259.2 362.9 260.7 362.9C261 363.2 261.2 363.6 261.5 363.9C261.7 363.1 261.9 362.3 262.1 361.6C262.4 360.6 262.7 359.6 263.1 358.5C264 355.8 265.2 353.3 266.5 350.8C269 346.1 272.1 342 275.8 338.2C273.4 336.4 271.1 334.6 268.7 332.7C263.4 343.6 256.1 353.1 246.9 361.1C249.5 362.2 252 363.2 254.6 364.3C255.7 352.5 260.8 341.7 269.1 333.2C266.7 331.4 264.4 329.6 262 327.7C257.9 335.7 251.9 342 244.1 346.5C246.4 347.8 248.6 349.1 250.9 350.4C250.8 346.8 251.3 343.3 253 340.1C253.7 338.7 254.6 337.4 255.6 336.3C257.2 334.4 260.2 333.9 257.4 332.1C256.1 330.5 255.4 330.6 255.3 332.6C254.8 333.6 254.4 334.6 253.9 335.6C253.1 337.1 252.3 338.5 251.5 339.9C250.6 341.3 249.7 342.7 248.7 344C247.9 345 247.2 346 246.3 347C244.9 347.8 244.8 348.4 246 348.7C246.7 349.6 247.4 350.5 248.1 351.4C247.1 348.2 250.4 342.2 251.9 339.5C252.8 338 258 329.4 260.3 329.9C261.4 330.1 262.9 335.7 263.3 336.7C264.1 338.9 264.8 341.2 265.3 343.5C265.8 345.8 266.4 348.2 266.4 350.5C266.4 353.2 266.4 353.3 264.2 351.4C257.9 346 257.2 332.3 266.5 329.2C271.2 327.6 272.6 333.6 273.7 337C275.3 341.9 276.8 346.9 278.4 351.9C280.9 350.4 283.4 349 285.9 347.5C280.3 342 277.3 335 277.1 327.1C275.2 328.5 273.3 330 271.4 331.4C281.9 335.4 283.6 348.6 285 358.2C285.8 363.9 294.5 361.5 293.7 355.8C291.7 342.2 288 328 273.8 322.7C271.1 321.7 268 324.3 268.1 327C268.3 337.2 272.3 346.5 279.5 353.7C282.6 356.8 288.4 353.7 287 349.3C285.2 343.6 283.6 337.9 281.6 332.3C280.2 328.3 278.4 324.1 274.7 321.7C266.7 316.4 257.3 322.4 253.2 329.7C248.5 338.2 249.7 348.8 256.1 356C261.4 361.9 271.7 365.1 274.6 355.2C277.2 346.4 272.7 333.4 268.3 325.8C262.3 315.6 252.4 323.3 247.3 329.9C244.6 333.4 242.5 337.2 241 341.3C239.6 345.1 237.3 351.3 240.1 355C246.7 363.6 256.2 349 259.1 344.2C261.6 340.2 265.2 334.7 264.6 329.7C264 325 259.6 322.8 255.4 324.6C246.2 328.6 241.5 340.9 241.9 350.2C242 353.6 245.6 355.8 248.7 354.1C257.7 348.9 265 341.3 269.8 332.1C272.1 327.7 266.4 322.9 262.7 326.6C252.7 336.8 246.9 349.8 245.6 364C245.2 368.2 250.6 369.5 253.3 367.2C263 358.8 270.9 348.5 276.5 337C278.6 332.6 273.2 327.7 269.4 331.5C263.6 337.5 259 344.4 255.8 352.1C253.7 357.2 249.3 366.9 256.1 370.4C257.5 371.1 259.3 371.3 260.6 370.4C270 363.7 277.6 355.2 282.8 344.9C284.6 341.3 280.6 335.8 276.6 338.7C266.8 346.1 259.9 355.9 256.7 367.7C255.7 371.2 260 375.2 263.3 372.8C272.6 366 280.4 357.9 286.9 348.3C289.9 343.8 283.5 339.8 279.8 342.8C273.1 348.3 267.5 354.8 262.9 362.2C260.8 365.5 264.3 370 268 368.8C276.3 366.2 284.3 362.8 291.9 358.6C290.1 356.2 288.3 353.9 286.4 351.5C278.7 360 269.9 367.3 260.1 373.2C256.5 375.4 257.7 380 261.2 381.4C265.4 383.1 269.9 379.7 270.1 375.4C270.4 370.2 265 365.3 261.8 361.9C253.7 353.1 244 345.9 233.4 340.6C233.7 343 234 345.3 234.3 347.7C239 342.9 244 338.5 249.3 334.5C254.1 330.9 260.1 326.1 265.8 324.2C267.5 323.6 267.4 323.3 268.8 324.7C270.2 326.1 271.3 327.8 272.4 329.3C274.6 332.1 276.9 335 279.1 337.8C281.5 340.9 284 344 286.4 347.1C287.7 348.8 293 353.9 292.6 355.8C292.2 358 286.7 361.2 284.9 362.7C282.1 365 279.3 367.3 276.5 369.6C273.7 371.9 270.9 374.2 268.1 376.5C266.9 377.5 264.3 380.4 262.2 379.3C261.4 378.9 260 375.9 259.5 375.2C252.2 364.2 243.5 354.3 233.8 345.4C229.8 341.9 223.4 348.2 227.7 352.1V352.1Z" fill="#4F46E5"/>
<path d="M232.5 344.1C236.1 351.1 258.7 390.1 268.3 376.8C271.7 372.1 263.9 367.6 260.5 372.3C260.3 372.5 260.2 372.8 260 373C261.3 372.3 262.6 371.5 263.9 370.8C262.2 371 258.1 365.3 257 364C254.8 361.5 252.6 359 250.6 356.3C246.7 351 243.3 345.4 240.3 339.6C237.7 334.4 229.9 339 232.5 344.1V344.1Z" fill="#4F46E5"/>
<path d="M411.4 220.6C400.7 212.8 396.6 196.8 403.3 185.1C406.6 179.3 412.6 174.6 419.6 175.4C426.8 176.2 430.3 181.4 430.8 188.2C431.1 192 430.7 195.9 430.6 199.7C430.4 203.3 430.8 207.5 429.8 211C428.8 214.5 425.2 216.4 423.8 219.9C422.6 222.9 423.9 225.5 420.4 226.5C419.4 226.8 418 226.7 417.1 227C415.5 226.8 415.5 227.1 417.1 227.8C416.7 226.5 416.4 225.3 416 224C414.7 219.6 413.4 215.1 412.1 210.7C409.9 203.3 405.3 192.4 411.1 185.5C408.7 185.8 406.3 186.1 403.8 186.4C407.3 189 406 199.6 406.2 203.2C406.5 210.7 406.8 218.2 407.1 225.7C407.4 233.6 418.3 233.3 419.1 225.7C419.9 217.8 418.8 210 418.5 202C418.3 198.6 418.3 195.1 418.8 191.7C419 190 419.4 188.4 419.9 186.8C420.2 185.7 420.7 184.6 421.2 183.6C422.3 181.9 422.3 181.7 421.3 183C419.8 183.2 418.2 183.4 416.7 183.6C416.4 183.5 417.8 187.2 418 188C418.4 189.5 418.6 191.1 418.8 192.6C419.2 196.8 419.2 201.1 419 205.3C418.9 207.2 418.7 209.1 418.4 211.1C418.2 212.3 418 213.5 417.8 214.7C416.8 217.1 418.5 217.7 422.9 216.2C423.3 215.4 422.2 212.2 422.1 211.3C421.9 209.2 421.8 207 421.9 204.9C422 200.8 422.5 196.9 423.5 192.9C423.8 191.7 424.1 190.6 424.5 189.4C426 186.8 424.4 185.9 419.7 186.8C419.3 187.5 420.9 191.3 421.1 192C422 196.2 422.2 200.5 421.8 204.8C421.6 206.8 421.4 213.3 419.1 213.8C411.6 215.6 414.8 227.2 422.3 225.4C430.2 223.5 432.4 215.5 433.4 208.4C434.5 200 434.1 190.5 430.9 182.6C427.8 175 418.7 174.9 414.7 181.9C410.7 188.9 409.8 198.8 409.9 206.7C410 213.1 410.1 224.1 417.8 226.4C426.3 228.9 429.3 219.7 430.2 213.3C431.4 204.9 431.7 196.3 430.3 187.9C429.3 181.7 425.3 169.8 416.8 172.1C408.6 174.2 407 188.5 406.6 195.3C406.1 205.5 408.3 215.6 407.3 225.8C411.3 225.8 415.3 225.8 419.3 225.8C418.9 215.7 418.5 205.6 418 195.5C417.7 187.8 416.5 181 410 176.2C408.1 174.7 404.3 175.3 402.7 177.1C396.1 184.9 395.6 194.5 397.9 204.1C399.1 209.3 400.8 214.5 402.3 219.6C403.7 224.4 404.5 230.2 407.1 234.4C411.2 241.2 422.6 239.6 428.5 236.1C431.6 234.3 433.7 231.3 434.5 227.8C435 225.6 434.8 224.7 436.2 222.9C437.8 220.9 439.4 219.3 440.4 216.9C442.1 213.1 442.2 208.9 442.4 204.9C442.6 199.9 443.1 194.8 443 189.7C442.8 180.8 439.9 172.4 432.2 167.3C417.4 157.5 398.8 166.6 391.8 181.4C383.6 198.9 390.2 219.6 405.5 230.8C411.6 235.5 417.6 225.1 411.4 220.6V220.6Z" fill="#38BDF8"/>
<path d="M410.8 247.1C412.8 250.3 416.4 251.5 420 250.4C421.6 249.9 423 249 424.2 247.9C424.5 247.6 424.9 247.3 425.2 246.9C425.5 246.6 425.4 246.6 425 247C426.9 246 425.4 245.7 420.6 245.9C423 247.9 426.8 248.4 429.1 245.9C431.2 243.7 431.6 239.6 429.1 237.4C426.2 234.9 422.5 234.5 419.1 236.5C418 237.1 416.9 238 416.1 239C415.4 239.9 417 238.4 415.9 239.2C416.1 239.1 416.3 239 416.5 239C414.4 239.5 415.9 240.2 421 241.1C419.3 238.4 415.6 237.1 412.8 238.9C410.3 240.6 409 244.3 410.8 247.1V247.1Z" fill="#38BDF8"/>
<path d="M413.6 255C413.6 255.3 413.6 255.6 413.6 255.9C413.6 257.4 414.3 259.1 415.4 260.1C416.4 261.1 418.1 261.9 419.6 261.9C421.2 261.8 422.8 261.3 423.8 260.1C424.9 258.9 425.6 257.5 425.6 255.9C425.6 255.6 425.6 255.3 425.6 255C425.6 253.5 424.9 251.8 423.8 250.8C422.8 249.8 421.1 249 419.6 249C418 249.1 416.4 249.6 415.4 250.8C414.3 251.9 413.6 253.3 413.6 255V255Z" fill="#38BDF8"/>
<path d="M354.2 144.4C380.5 113.1 405.7 80.9 429.9 47.8C427.6 48.7 425.4 49.6 423.1 50.6C425.4 51.3 427.1 52.5 428.8 54.2C428.5 51.8 428.2 49.4 427.9 46.9C404.8 79.9 381.8 112.8 358.7 145.8C361.4 145.1 364.2 144.4 366.9 143.6C364.9 142.4 362.9 141.2 360.9 139.9C361.6 142.6 362.3 145.4 363.1 148.1C373.6 134.4 383.2 120.2 391.9 105.3C395.8 98.6 385.4 92.6 381.5 99.2C372.8 114 363.2 128.3 352.7 142C350.7 144.6 352.4 148.7 354.9 150.2C356.9 151.4 358.9 152.6 360.9 153.9C363.8 155.7 367.3 154.4 369.1 151.7C392.2 118.7 415.2 85.8 438.3 52.8C439.8 50.6 439.1 47.3 437.4 45.5C434.3 42.3 430.6 40.1 426.4 38.8C423.7 37.9 421.2 39.4 419.6 41.6C396.1 73.8 371.5 105.2 345.8 135.7C340.8 141.8 349.3 150.4 354.2 144.4V144.4Z" fill="#38BDF8"/>
<path d="M286.9 484.4C286.9 484.1 286.9 483.8 286.9 483.5C286.9 475.8 274.9 475.8 274.9 483.5C274.9 483.8 274.9 484.1 274.9 484.4C274.9 492.2 286.9 492.2 286.9 484.4C286.9 484.1 286.9 483.8 286.9 483.5C286.9 475.8 274.9 475.8 274.9 483.5C274.9 483.8 274.9 484.1 274.9 484.4C274.9 492.2 286.9 492.2 286.9 484.4V484.4Z" fill="#38BDF8"/>
<path d="M191.1 400.7C198.8 400.7 198.8 388.7 191.1 388.7C183.4 388.7 183.4 400.7 191.1 400.7V400.7Z" fill="#38BDF8"/>
<path d="M218.2 406C224 406 224 397 218.2 397C212.4 397 212.4 406 218.2 406V406Z" fill="#4F46E5"/>
<path d="M585.7 177.4C591.5 177.4 591.5 168.4 585.7 168.4C579.9 168.4 579.9 177.4 585.7 177.4V177.4Z" fill="#4F46E5"/>
<path d="M642.1 313.4C642.1 314 642.1 314.5 642.1 315.1C642.1 316.3 642.6 317.5 643.4 318.3C644.2 319.1 645.5 319.7 646.6 319.6C647.8 319.5 649 319.2 649.8 318.3C650.6 317.4 651.1 316.3 651.1 315.1C651.1 314.5 651.1 314 651.1 313.4C651.1 312.2 650.6 311 649.8 310.2C649 309.4 647.7 308.8 646.6 308.9C645.4 309 644.2 309.3 643.4 310.2C642.6 311.1 642.1 312.2 642.1 313.4V313.4Z" fill="#4F46E5"/>
<path d="M605.8 242C622.8 244.7 646.6 252.6 640.3 274.8C637.4 285 629.4 292.3 621.5 298.8C613.7 305.1 606 311.3 598.9 318.4C592.1 325.2 585.9 332.6 580.2 340.4C575.7 346.6 569.5 354.3 570.2 362.6C570.8 370 577.3 371.8 583.2 374.1C591.7 377.4 600.7 383.2 604 392.1C608.4 404.1 599.2 414.7 590.5 421.8C582.7 428.2 574.2 433.7 568.9 442.5C567.9 444.2 570.5 445.7 571.5 444C581 428 605.2 421.6 607.9 401.4C609 393.5 605.4 386.1 599.7 380.8C596.9 378.1 593.6 375.9 590.2 374C586.1 371.8 581.3 370.9 577.3 368.6C566.1 362.1 580.1 345.5 584.9 339.2C591.8 330.1 599.5 321.7 608 314.1C621.6 301.7 642.9 290.7 644.4 270C645.9 249 623.4 241.9 606.8 239.3C604.7 238.8 603.9 241.7 605.8 242Z" fill="#161616"/>
<path d="M310.4 238.8C292.6 260.7 272.5 280.6 250.3 298C228.5 315.1 204.8 328.7 180.7 342.2C158.5 354.7 136.1 367.5 117.1 384.8C108.6 392.5 99.2 401.5 94.4 412.2C90.7 420.5 90.4 431.3 99.9 435.6C105.1 437.9 111.2 437.1 116.6 436.2C125.4 434.7 134.1 432.8 142.8 431.1C151.7 429.4 160.6 427.6 169.5 425.9C178 424.3 193.9 422.8 194.3 435.5C194.4 437.4 197.4 437.4 197.3 435.5C196.9 423.7 184.3 420.7 174.6 421.9C159.8 423.8 145.2 427.5 130.5 430.3C120.2 432.3 92.7 440.6 94.7 420.9C96 408.2 108 397.2 116.7 388.9C135.1 371.5 157.2 358.6 179.2 346.2C202.3 333.2 225.3 320.4 246.5 304.4C270.9 285.9 293 264.5 312.3 240.8C313.7 239.4 311.6 237.3 310.4 238.8Z" fill="#161616"/>
<path d="M151.3 444.2C142.5 454.8 132.2 467.3 133.8 482C135 493.3 143.1 503.9 155.3 503.1C163.1 502.6 170 498.3 176.8 495C185.3 490.9 194 487.2 203 484.5C211.9 481.9 221.2 480.2 230.5 480C237.9 479.9 246.3 480.4 252.5 485C261.9 491.8 256.1 502 251.1 509.6C246.2 516.9 241.9 524.4 238.1 532.3C234.7 539.5 231.7 547 229.3 554.6C227.5 560.3 225.4 567 229.8 572C239.2 582.9 253.5 573.6 261.4 566.2C273.5 554.9 286.6 545.5 301.7 538.5C318.6 530.7 337 526.1 355.5 525.1C364.9 524.6 374.4 524.9 383.7 526.4C392 527.7 401.3 530.3 405.2 538.6C406 540.3 408.6 538.8 407.8 537.1C402.4 525.4 387.6 523.6 376.2 522.5C361.3 521.1 346.1 522.2 331.5 525.4C316.9 528.6 302.6 534 289.6 541.4C283.2 545 277.2 549.1 271.4 553.6C264.9 558.7 259.4 565 252.8 569.7C246.9 573.9 234.3 577 230.8 567.8C229.1 563.3 231.3 558.1 232.7 553.7C234.2 549.1 235.9 544.6 237.8 540.2C241.1 532.4 245 524.9 249.4 517.7C253.3 511.4 259.1 505 260.5 497.5C262.8 485.3 250.8 479 240.5 477.5C225.2 475.4 209 478.9 194.6 484.1C185.8 487.3 177.5 491.4 169.1 495.5C160.4 499.8 149.6 503.1 142.2 494.6C128.4 478.8 142.9 458.9 153.4 446.2C154.7 444.8 152.6 442.7 151.3 444.2Z" fill="#161616"/>
<path d="M208.8 494.8C218.2 491.8 226.5 501 226.7 509.9C226.9 519.3 220.7 527.4 214.5 533.8C213.1 535.2 215.3 537.3 216.6 535.9C224.2 528.1 232.1 517 229.1 505.4C226.7 496.3 217.5 488.9 208 491.9C206.2 492.5 206.9 495.4 208.8 494.8Z" fill="#161616"/>
<path d="M558.1 236.8C562.7 240.6 568.1 241.4 573.8 242.6C580 243.9 585.4 246.3 589.7 251.1C597.8 260.2 600.3 273.9 594.3 284.7C593.4 286.4 595.9 287.9 596.9 286.2C602.7 275.8 601.5 263 595.1 253.2C592.1 248.6 587.9 244.6 582.8 242.2C575.6 238.8 566.6 239.9 560.2 234.7C558.7 233.5 556.6 235.6 558.1 236.8Z" fill="#161616"/>
<path d="M191.4 449.8C197.1 465.1 215.2 461.2 226.3 455.2C233.4 451.4 240 446.5 245.8 440.9C252 434.8 257 427.6 263.1 421.4C269.8 414.6 279.2 408.4 289.3 410.1C298.4 411.6 303.9 419.7 309.7 425.9C317.3 433.9 332.6 442.1 340.3 429.4C341.3 427.7 338.7 426.2 337.7 427.9C332.8 435.9 322.4 433.1 316.4 428.3C311 423.9 307.1 417.9 301.8 413.4C291.8 404.8 279.3 405.6 268.7 412.8C257 420.7 249.9 433.8 239.2 442.9C232.9 448.2 225.6 453.1 217.8 456C209.5 459.1 197.9 458.9 194.3 449.1C193.6 447.2 190.7 448 191.4 449.8Z" fill="#161616"/>
<path d="M216.4 356.6C229.2 367.7 239.9 380.9 248.2 395.7C249.1 397.4 251.7 395.9 250.8 394.2C242.4 379.1 231.6 365.8 218.5 354.5C217.1 353.2 214.9 355.4 216.4 356.6Z" fill="#161616"/>
<path d="M219 353.4C229.8 339.1 245.1 324.5 262.1 318C264.8 317 267.9 316.1 270.8 316.8C274.4 317.6 276.5 320.7 278.6 323.5C281.6 327.4 284.5 331.4 287.4 335.4C293.1 343.4 298.5 351.7 303.6 360.1C304.6 361.7 307.2 360.2 306.2 358.6C299.8 348.1 292.9 337.8 285.6 327.9C280.1 320.4 275.1 311.6 264.4 314.1C255.1 316.3 246.2 323.1 238.9 328.8C230.4 335.5 222.9 343.3 216.3 351.9C215.3 353.4 217.9 354.9 219 353.4Z" fill="#161616"/>
<path d="M250 397C270.4 388.4 288.6 375.8 303.7 359.6C305 358.2 302.9 356.1 301.6 357.5C286.9 373.3 269.1 385.8 249.2 394.1C247.4 394.9 248.2 397.8 250 397Z" fill="#161616"/>
<path d="M230.6 355.4C242 345.1 254.7 336.6 268.7 330.1C270.4 329.3 268.9 326.7 267.2 327.5C253 334.1 240.1 342.8 228.5 353.3C227 354.5 229.2 356.7 230.6 355.4Z" fill="#161616"/>
<path d="M238.9 360.4C245.1 355.9 251.3 351.5 257.5 347C259.1 345.9 257.6 343.3 256 344.4C249.8 348.9 243.6 353.3 237.4 357.8C235.8 359 237.3 361.6 238.9 360.4Z" fill="#161616"/>
<path d="M243.1 367.3C253.5 360 263.9 352.6 274.3 345.3C275.9 344.2 274.4 341.6 272.8 342.7C262.4 350 252 357.4 241.6 364.7C240 365.8 241.5 368.4 243.1 367.3Z" fill="#161616"/>
<path d="M251.9 375.5C258.3 370.3 265 365.7 272 361.4C273.7 360.4 272.1 357.8 270.5 358.8C263.2 363.1 256.3 368 249.8 373.3C248.3 374.6 250.4 376.7 251.9 375.5Z" fill="#161616"/>
<path d="M256.5 383.7C265.9 376 276.1 369.6 287 364.3C288.7 363.5 287.2 360.9 285.5 361.7C274.3 367.1 264 373.8 254.4 381.6C252.9 382.8 255 384.9 256.5 383.7Z" fill="#161616"/>
<path d="M462.1 446.5C467 440.3 461.2 432.7 454.7 430.9C446.9 428.7 438 432.4 434.1 439.4C429.7 447.2 431.5 457.4 437.2 464C444.5 472.6 463.5 477.8 460.1 492C459.6 493.9 462.5 494.7 463 492.8C466.9 476.6 447.4 471.6 439.3 461.9C433.6 455 432.6 443.4 439.8 437.1C442.7 434.6 446.8 433.1 450.6 433.3C455.1 433.5 464.8 438.4 460.1 444.5C458.8 445.9 460.9 448 462.1 446.5Z" fill="#161616"/>
<path d="M463.7 445.9C464.5 440.5 467 435.7 471 432C472.9 430.2 475.1 428.8 477.5 427.7C478.7 427.2 480 426.7 481.3 426.4C484.1 425.8 484.7 425.8 487 427.8C489.3 429.9 489.4 430.5 489.3 433.4C489.3 434.5 489.1 435.6 489 436.6C488.7 438.6 488.1 440.5 487.4 442.4C485.9 446.5 483.6 450.3 481.2 453.9C472.6 466.7 460.3 478.4 459.6 494.7C459.5 496.6 462.5 496.6 462.6 494.7C463.5 472.8 486.2 460.2 491.4 439.8C492.4 435.9 493.2 430.9 491.5 427.1C489.4 422.7 484.8 422.5 480.6 423.5C470.4 425.9 462.6 434.8 461 445.1C460.5 447 463.4 447.9 463.7 445.9Z" fill="#161616"/>
<path d="M480.7 294.9C478.9 304.6 478.5 314.8 480.7 324.5C482.8 333.8 489.5 331.8 497.2 332.3C514.7 333.5 537.9 344.6 549.4 324.8C550.4 323.1 547.8 321.6 546.8 323.3C537 340.2 516.4 331.9 501.4 329.8C497.9 329.3 494.6 329.3 491.1 329.4C485.7 329.4 484.1 326.8 483.3 322C481.8 313.3 482 304.5 483.7 295.8C483.9 293.8 481 293 480.7 294.9Z" fill="#161616"/>
<path d="M481.1 299.7C486.5 296.4 491.2 295.8 497.3 294.8C499.9 294.4 501.6 293.4 502 290.7C503.1 283.9 500.2 276.9 505.6 271.1C511.6 264.6 519.7 270.4 522.2 277C523.4 280.1 524.1 283.7 526.5 286.2C529.6 289.5 533.7 288.6 537.6 289.7C552.7 293.8 548.2 313.3 545 323.8C544.4 325.6 547.3 326.4 547.9 324.6C551.3 313.7 554.7 300.1 545.6 291C544.1 289.5 542.4 288.3 540.5 287.5C537.6 286.3 534.4 286.9 531.4 285.8C525.6 283.7 525.7 275.1 522.2 270.7C515.9 262.9 505.1 264 500.8 273.1C499.6 275.6 499.2 278.2 499 280.9C498.8 284.1 500.3 290.5 496.9 291.8C494.5 292.8 490.8 292.4 488.2 293.2C485.1 294.1 482.3 295.5 479.6 297.1C478 298.2 479.5 300.8 481.1 299.7Z" fill="#161616"/>
<path d="M493 296.6C491.5 308.4 493.5 320.1 498.7 330.8C499.5 332.5 502.1 331 501.3 329.3C496.3 319.1 494.5 307.9 496 296.6C496.3 294.7 493.3 294.7 493 296.6Z" fill="#161616"/>
<path d="M396.8 230.1C383.9 224.1 376.2 210.2 376.9 196C377.7 181.5 387.5 168.3 400 161.4C407.8 157.1 416.1 155.8 424 160.4C431.2 164.5 436.3 171.6 439.2 179.2C444.4 193 442.5 208.7 434.3 221C433.2 222.6 435.8 224.1 436.9 222.5C450.5 202.2 447.4 166.9 422.5 156.4C410 151.1 396.7 158.2 387.7 167C378.9 175.6 373.2 187.9 373.9 200.3C374.7 214 382.7 226.9 395.2 232.8C397 233.5 398.5 230.9 396.8 230.1Z" fill="#161616"/>
<path d="M395.4 233.7C392.8 236.5 393.5 240.8 396.7 242.9C401.9 246.3 410.9 243.2 416.4 241.9C422.3 240.5 431.2 239.2 435.2 234C437.6 230.8 437.6 226.4 434.5 223.7C433 222.5 430.9 224.6 432.4 225.8C437 229.7 431 234.2 427.4 235.6C424.4 236.7 421.3 237.6 418.2 238.4C415.3 239.1 412.4 239.8 409.5 240.3C407.7 240.6 405.7 241.1 403.9 241.2C401.3 241.3 393.8 239.9 397.6 235.9C398.9 234.4 396.8 232.3 395.4 233.7Z" fill="#161616"/>
<path d="M401.2 244.4C401.6 250.3 406.6 254.1 412.4 254.5C420.4 255 426.4 248.3 431.1 242.8C432.3 241.3 430.2 239.2 429 240.7C425.7 244.6 422 249.1 417.1 250.8C412.1 252.6 404.7 250.6 404.3 244.4C404.1 242.5 401.1 242.5 401.2 244.4Z" fill="#161616"/>
<path d="M409.3 255.6C408.5 259.7 411 264 415.3 264.7C419.7 265.4 423.5 261.5 423.6 257.3C423.6 255.4 420.6 255.4 420.6 257.3C420.6 259.8 418.2 262.3 415.5 261.7C413.2 261.2 411.7 258.6 412.2 256.4C412.6 254.5 409.7 253.7 409.3 255.6Z" fill="#161616"/>
<path d="M388.8 192.3C397.4 197.8 404 205.5 408.2 214.8C409 216.6 411.6 215 410.8 213.3C406.4 203.5 399.4 195.5 390.3 189.7C388.6 188.7 387.1 191.3 388.8 192.3Z" fill="#161616"/>
<path d="M404.2 185C406.1 199.4 408.1 213.8 410 228.1C410.3 230 413.1 229.2 412.9 227.3C411 212.9 409 198.5 407.1 184.2C406.8 182.3 404 183.1 404.2 185Z" fill="#161616"/>
<path d="M409.4 209.5C412 200.1 418 192.5 426.5 187.7C428.2 186.8 426.7 184.2 425 185.1C415.9 190.2 409.3 198.6 406.5 208.7C406 210.6 408.9 211.4 409.4 209.5Z" fill="#161616"/>
<path d="M300.4 466.6C304.4 475.3 308.7 483.9 313.5 492.2C315.9 496.3 319.1 504.1 325 501.6C326.8 500.8 325.2 498.3 323.5 499C319.7 500.6 312.9 485.1 311.6 482.6C308.5 476.9 305.7 471 303 465.1C302.2 463.3 299.6 464.8 300.4 466.6Z" fill="#161616"/>
<path d="M303.1 468.4C311.6 461.8 319.9 455 328.5 448.6C336 442.9 344.1 437.4 353.3 434.8C363.2 431.9 371.8 434.2 378.4 442.2C384 449 387.4 457.4 391.2 465.2C392 466.9 394.6 465.4 393.8 463.7C386.5 448.7 377.9 427.5 357.4 430.8C347.2 432.4 338 438 329.7 444C319.9 451.2 310.5 458.9 300.9 466.4C299.5 467.5 301.6 469.6 303.1 468.4Z" fill="#161616"/>
<path d="M320.9 501.9C347 496.2 371.2 484 391.5 466.6C393 465.3 390.8 463.2 389.4 464.5C369.5 481.6 345.7 493.4 320.1 499.1C318.2 499.5 319 502.4 320.9 501.9Z" fill="#161616"/>
<path d="M345.2 473.7C339.9 472.4 335.5 467.2 336.8 461.5C338 456 344.7 452 350 454.6C360.7 460 353.4 475.4 342.4 471.5C340.6 470.9 339.8 473.8 341.6 474.4C347.8 476.6 355.3 473.6 357.7 467.3C360.1 461.1 356.2 453.6 350.1 451.4C343.5 449 336 453.5 334.1 460.1C331.9 467.5 337.3 474.8 344.4 476.6C346.3 477.1 347.1 474.2 345.2 473.7Z" fill="#161616"/>
<path d="M398.5 397.8C397.3 387.1 397.2 374.9 409.9 372C416.3 370.5 421.6 368.6 425.3 362.7C429.1 356.7 428.6 351.1 427.1 344.5C426 339.3 426.1 334.8 430.3 330.9C433.7 327.8 438.2 326.6 442.6 328C444.4 328.6 445.2 325.7 443.4 325.1C437 323.1 430.3 325.6 426.2 330.9C419.9 339.2 427.3 347.6 424.8 356.5C423.3 361.8 419.2 366.3 413.9 368.1C409.6 369.5 405 369.4 401.4 372.4C393.8 378.6 394.5 389.1 395.5 397.8C395.7 399.7 398.7 399.7 398.5 397.8Z" fill="#161616"/>
<path d="M374.1 341.8C371 339.3 373.5 333.7 377.5 335.8C379.1 336.6 380.1 338.5 379.2 340.2C378.3 341.9 376 342.8 374.3 341.9C372.6 341 371.1 343.6 372.8 344.5C375.9 346 379.7 344.9 381.6 342.1C383.6 339.1 382.3 335.3 379.4 333.5C376.5 331.7 372.6 332.2 370.7 335.2C369 338 369.4 341.9 372 344C373.5 345.1 375.6 343 374.1 341.8Z" fill="#161616"/>
<path d="M510.9 186.8C509.1 183.9 508 180.2 509.1 176.9C510 174.1 512.8 172.4 515.7 172.7C518.9 173 520.6 176 518.9 178.8C517.4 181.4 514.3 182.7 511.4 182.3C509.5 182.1 509.5 185.1 511.4 185.3C515.7 185.8 520.4 183.2 522 179.1C523.5 175.4 521.6 171.3 517.8 170.1C514.2 168.9 509.8 170.3 507.6 173.4C504.3 177.9 505.6 184 508.3 188.5C509.3 189.9 511.9 188.4 510.9 186.8Z" fill="#161616"/>
<path d="M349.6 309.4C355 319.2 366 324.7 377.1 323.1C390.7 321.1 398 310.7 403.4 299.1C409.7 285.7 418.4 274.7 432.3 268.8C444.9 263.5 461.2 266.2 471.6 256.3C475.6 252.5 478.3 247.2 477.4 241.6C476.7 237.3 474.1 233.7 475.1 229.2C476.3 224.3 480.1 220.7 484.9 219.7C486.8 219.3 486 216.4 484.1 216.8C478.3 218.1 473.6 222.5 472.2 228.4C471.4 231.6 472 234.5 473 237.6C474.6 242.6 475.2 246.7 471.9 251.3C466.1 259.4 455.9 260.5 446.8 261.8C438.7 263 431.1 265.2 424.1 269.4C417.9 273.1 412.4 278.1 408.1 283.9C403.4 290.3 400.8 297.8 397 304.7C392.2 313.2 384.3 319.7 374.2 320.3C365 320.8 356.4 315.9 351.9 307.8C351.3 306.2 348.7 307.7 349.6 309.4Z" fill="#161616"/>
<path d="M328.7 145.4C327 157.9 325.3 170.4 323.7 182.9C323.4 184.8 326.3 185.6 326.6 183.7C328.3 171.2 330 158.7 331.6 146.2C331.9 144.3 329 143.5 328.7 145.4Z" fill="#161616"/>
<path d="M328.2 184.6C340 176.1 351.8 167.6 363.6 159.1C365.2 158 363.7 155.4 362.1 156.5C350.3 165 338.5 173.5 326.7 182C325.1 183.1 326.6 185.7 328.2 184.6Z" fill="#161616"/>
<path d="M330.6 147.1C360.2 107.4 389.3 67.4 417.9 27C419 25.4 416.4 23.9 415.3 25.5C386.7 65.9 357.6 106 328 145.6C326.9 147.1 329.5 148.6 330.6 147.1Z" fill="#161616"/>
<path d="M367.3 154.6C394.5 118.6 420.9 82 446.5 44.8C447.6 43.2 445 41.7 443.9 43.3C418.3 80.4 391.9 117.1 364.7 153.1C363.5 154.6 366.1 156.1 367.3 154.6Z" fill="#161616"/>
<path d="M417 27C421.7 18.2 427.2 7.50001 437.6 4.60001C447.9 1.70001 458 9.50001 458.2 20.2C458.2 22.1 461.2 22.1 461.2 20.2C461.1 9.90001 452.4 0.600009 441.8 0.900009C427.9 1.30001 420.1 14.6 414.4 25.5C413.5 27.2 416.1 28.7 417 27Z" fill="#161616"/>
<path d="M447.1 44.5C452.2 36.9 456.8 29.1 460.9 20.9C461.8 19.2 459.2 17.7 458.3 19.4C454.2 27.6 449.6 35.4 444.5 43C443.5 44.5 446.1 46.1 447.1 44.5Z" fill="#161616"/>
<path d="M414.8 31.9C426.3 24.1 441.2 28.3 446.9 40.9C447.7 42.7 450.3 41.1 449.5 39.4C443.1 25.3 426 20.6 413.3 29.3C411.7 30.4 413.2 33 414.8 31.9Z" fill="#161616"/>
<path d="M409.5 40.9C419.5 34.5 434.2 38.7 438.8 49.9C439.5 51.7 442.4 50.9 441.7 49.1C436.3 36.3 419.8 30.8 408 38.3C406.4 39.4 407.9 42 409.5 40.9Z" fill="#161616"/>
<path d="M328.8 148.5C334.3 151.8 339.8 144.6 345.5 144.7C349.8 144.8 353.8 146.8 356.3 150.4C358.1 153 359 155.5 361.9 157C363.6 157.9 365.1 155.3 363.4 154.4C360 152.6 359 148.2 356.1 145.7C354.1 144 351.7 142.8 349.1 142.2C346.5 141.6 343.8 141.6 341.3 142.2C338.1 143 333.4 147.7 330.4 145.9C328.7 144.9 327.2 147.5 328.8 148.5Z" fill="#161616"/>
<path d="M345.2 143.1C365.4 116.5 385.7 89.8001 405.9 63.2001C407.1 61.7001 404.5 60.2001 403.3 61.7001C383.1 88.3001 362.8 115 342.6 141.6C341.5 143.1 344.1 144.6 345.2 143.1Z" fill="#161616"/>
<path d="M376.9 123.1C395.7 95.5 415.6 68.8 436.7 42.9C437.9 41.4 435.8 39.3 434.6 40.8C413.4 66.9 393.2 93.8 374.3 121.6C373.3 123.2 375.9 124.7 376.9 123.1Z" fill="#161616"/>
<path d="M327.6 175.1C329.5 173.5 332.3 175.1 331.8 177.6C331.4 179.5 334.3 180.3 334.7 178.4C335.2 176 334.3 173.5 332.1 172.2C329.9 170.9 327.3 171.4 325.4 173C324 174.2 326.1 176.3 327.6 175.1Z" fill="#161616"/>
<path d="M328.5 174.7C328 176.8 327.1 178.7 325.8 180.4C326.6 180.9 327.5 181.4 328.3 181.9C328.9 179.7 330.1 177.8 331.8 176.2C331 176.1 330.2 176 329.4 175.9C329.9 177 329.5 178.2 328.5 178.8C329.2 179.1 330 179.4 330.7 179.7C330.3 178.3 330.6 177 331.5 175.9C330.9 176 330.3 176.1 329.7 176.1C330.5 176.5 330.4 177.6 329.6 178C330.2 178.1 330.8 178.2 331.4 178.2C330.8 177.7 330.3 177.1 330 176.4C329.9 176.1 329.8 175.8 329.7 175.4C329.7 175.2 329.5 173.1 329.2 173.7C328.3 175.4 330.9 176.9 331.8 175.2C333.2 172.6 329.6 170.3 327.6 172.4C325.5 174.7 327.4 178.5 329.4 180.2C329.9 180.7 330.6 180.8 331.2 180.4C334 179 334 174.8 331.3 173.3C330.8 173 329.9 173 329.5 173.5C327.9 175.4 327.3 177.8 327.9 180.2C328.1 181.1 329.3 181.6 330.1 181.1C332.6 179.6 333.3 176.6 332.1 174.1C331.7 173.2 330.4 173.2 329.7 173.8C327.6 175.7 326.2 178.1 325.5 180.8C325.1 182.1 327 183.5 328 182.3C329.6 180.2 330.8 177.9 331.5 175.3C331.9 173.6 329 172.8 328.5 174.7Z" fill="#161616"/>
<path d="M322.9 190.4C320.9 201.2 316.4 211.1 309.3 219.5C308.1 221 310.2 223.1 311.4 221.6C318.8 212.7 323.7 202.5 325.8 191.1C326.1 189.3 323.2 188.5 322.9 190.4Z" fill="#161616"/>
<path d="M302 202.9C291.6 210.6 280.6 217.5 269.2 223.6C267.5 224.5 269 227.1 270.7 226.2C282.1 220.1 293.1 213.2 303.5 205.5C305.1 204.3 303.6 201.7 302 202.9Z" fill="#161616"/>
<path d="M546.1 431.5C543.4 427.3 538.9 429.5 536.5 432.7C533.9 436 531.8 439.9 529.6 443.5C527.9 446.3 525.9 449.4 525.6 452.9C525 459.9 530.3 460.7 535.6 462.4C541.9 464.5 541.5 471.9 537.5 476C534.3 479.3 529.6 480.7 525.4 482.1C523.6 482.7 524.4 485.6 526.2 485C534.6 482.3 547.1 476.2 542.8 465C542.1 463.2 540.9 461.7 539.3 460.7C538.4 460.2 537.4 459.8 536.4 459.5C533.5 458.6 532.7 458.9 530.4 456.4C528.5 455.3 527.9 453.8 528.8 451.8C529.2 450.4 529.7 449.1 530.4 447.9C531.2 446.3 532.2 444.8 533.2 443.3C534.2 441.8 541.2 429.2 543.5 432.9C544.5 434.6 547.1 433.1 546.1 431.5Z" fill="#161616"/>
<path d="M374.4 549.2C382.6 547.1 389.6 555.2 386 563C385.2 564.7 387.8 566.3 388.6 564.5C393.3 554.4 384.6 543.5 373.7 546.3C371.7 546.8 372.5 549.7 374.4 549.2Z" fill="#161616"/>
<path d="M527.6 384.5C523.8 381.7 523.8 374.4 529.6 374.2C531.7 374.1 533.9 375.3 533.8 377.6C533.8 379.5 532.1 381.8 530 381.5C528.1 381.2 527.3 384.1 529.2 384.4C532.9 385 536.1 382.3 536.7 378.7C537.4 375 534.7 371.8 531.1 371.3C527.4 370.7 523.6 372.8 522.3 376.4C521 380.4 522.8 384.7 526.1 387.1C527.6 388.2 529.1 385.6 527.6 384.5Z" fill="#161616"/>
<path d="M109.6 372.1C111 366.5 115.8 363.3 120.3 360.2C125 356.9 129.8 353.5 134.6 350.2C144.1 343.5 153.6 336.9 163.1 330.2C164.7 329.1 163.2 326.5 161.6 327.6C150.5 335.4 139.4 343.1 128.3 350.9C120.8 356.1 109.1 361.6 106.7 371.3C106.2 373.2 109.1 374 109.6 372.1Z" fill="#161616"/>
<path d="M780.5 897.8C659 877 537.5 856.2 416 835.4C489.8 805.6 563.6 775.9 637.4 746.1C752.8 771.8 868.2 797.5 983.5 823.2C915.9 848.1 848.2 872.9 780.5 897.8Z" fill="white" stroke="#161616" stroke-width="3"/>
<path d="M775.5 899.3C775.9 900.5 776.2 901.8 776.6 903C777.1 904.6 779.5 904.3 779.5 902.6C779.5 901.6 779.5 900.7 779.5 899.7C779.5 897.8 776.5 897.8 776.5 899.7C776.5 900.9 776.3 902 775.8 903.1C776.8 903.1 777.7 903.1 778.7 903.1C778.3 901.8 778.2 900.6 778.5 899.2C777.6 899.3 776.7 899.4 775.8 899.6C776.1 899.9 776.1 900.1 775.9 900.4C776.8 900.5 777.7 900.6 778.6 900.8C778.4 900.1 778.5 899.5 778.9 898.9C778 898.6 777 898.4 776.1 898.1C775.9 899.7 775.7 901.2 775.5 902.8C775.4 903.6 776.3 904.3 777 904.3C777.9 904.3 778.4 903.6 778.5 902.8C778.7 901.2 778.9 899.7 779.1 898.1C779.3 896.6 777 896.2 776.3 897.3C775.5 898.6 775.3 900.1 775.7 901.6C776 902.9 777.8 903 778.4 902C779.2 900.8 779.2 899.3 778.3 898.2C777.6 897.3 775.8 897.2 775.6 898.6C775.2 900.4 775.3 902.3 775.8 904.1C776.3 905.6 778.2 905.4 778.7 904.1C779.2 902.7 779.5 901.3 779.5 899.9C778.5 899.9 777.5 899.9 776.5 899.9C776.5 900.9 776.5 901.8 776.5 902.8C777.5 902.7 778.5 902.5 779.4 902.4C779 901.2 778.7 899.9 778.3 898.7C777.9 896.6 775 897.4 775.5 899.3Z" fill="#161616"/>
<path d="M777.8 906.5C793.9 898.2 811.5 893.8 828.8 888.9C837.3 886.5 845.7 883.9 853.8 880.5C861.6 877.3 869.1 873.3 876.8 869.7C893.9 861.7 912.4 856.5 930.3 850.6C948.9 844.4 967.4 838.2 986 832.1C987.8 831.5 987 828.6 985.2 829.2C966.6 835.4 948.1 841.6 929.5 847.7C911.9 853.5 893.8 858.7 876.9 866.4C868.1 870.4 859.5 875.1 850.5 878.6C842.3 881.8 833.9 884.3 825.4 886.7C808.7 891.5 791.8 895.9 776.2 903.9C774.6 904.8 776.1 907.4 777.8 906.5Z" fill="#161616"/>
<path d="M779.2 905.9C848.3 882 917.2 857.8 986.1 833.2C991.5 831.3 989.2 822.6 983.7 824.5C914.9 849.1 845.9 873.3 776.8 897.2C771.4 899.1 773.7 907.8 779.2 905.9Z" fill="#161616"/>
<path d="M771.4 809.3C784.4 810.6 795.5 818.5 808.3 821C810.2 821.4 811 818.5 809.1 818.1C796.1 815.5 784.8 807.6 771.4 806.3C769.5 806.2 769.5 809.2 771.4 809.3Z" fill="#161616"/>
<path d="M809.2 819.6C817.1 815.3 824.5 810.2 831.2 804.2C832.6 802.9 830.5 800.8 829.1 802.1C822.5 807.9 815.4 812.9 807.7 817C806 818 807.5 820.6 809.2 819.6Z" fill="#161616"/>
<path d="M774.5 803.6C780.8 799.1 787.3 794.8 794 790.8C795.7 789.8 794.1 787.2 792.5 788.2C785.8 792.2 779.3 796.4 773 801C771.4 802.2 772.9 804.8 774.5 803.6Z" fill="#161616"/>
<path d="M794.5 791.3C805.9 795.6 817.3 799.8 828.8 804.1C830.6 804.8 831.4 801.9 829.6 801.2C818.2 796.9 806.8 792.7 795.3 788.4C793.5 787.8 792.7 790.7 794.5 791.3Z" fill="#161616"/>
<path d="M762.4 820.7C792.5 830 822.2 840.7 851.3 852.8C853.1 853.5 853.9 850.6 852.1 849.9C823 837.8 793.3 827.1 763.2 817.8C761.3 817.2 760.5 820.1 762.4 820.7Z" fill="#161616"/>
<path d="M765.3 844C784 853 802.9 861.5 822 869.8C823.8 870.6 825.3 868 823.5 867.2C804.4 859 785.5 850.4 766.8 841.4C765.1 840.6 763.6 843.2 765.3 844Z" fill="#161616"/>
<path d="M768 869.7C778.2 874.9 788.4 880.2 798.6 885.4C800.3 886.3 801.8 883.7 800.1 882.8C789.9 877.6 779.7 872.3 769.5 867.1C767.8 866.2 766.3 868.8 768 869.7Z" fill="#161616"/>
<path d="M773.8 870.6C787.9 858.6 802.7 847.6 818.1 837.4C819.7 836.3 818.2 833.7 816.6 834.8C801 845.1 786 856.4 771.7 868.5C770.2 869.8 772.3 871.9 773.8 870.6Z" fill="#161616"/>
<path d="M770.1 850.1C778.1 844.5 786.1 838.9 794.1 833.2C795.7 832.1 794.2 829.5 792.6 830.6C784.6 836.2 776.6 841.8 768.6 847.5C767.1 848.6 768.6 851.2 770.1 850.1Z" fill="#161616"/>
<path d="M775.1 904.7C649.4 883.3 523.7 861.9 398 840.5C386.2 751.2 374.3 662 362.5 572.7C497.8 590.9 633 609.1 768.3 627.4C770.6 719.8 772.9 812.2 775.1 904.7Z" fill="white" stroke="#161616" stroke-width="3"/>
<path d="M551.1 750.2C540.2 746.8 534.3 737.6 533.4 726.5C532.5 715.2 534.7 704.3 545.2 698.4C554.5 693.2 565.6 694.7 573.9 701C582.2 707.3 589.6 720.2 582.9 730.1C581.8 731.7 584.4 733.2 585.5 731.6C592.7 721 585.9 707 577.1 699.7C568 692.2 555.7 689.9 545 695.2C532.6 701.3 529.4 713.7 530.4 726.6C531.4 739.1 538 749.4 550.3 753.2C552.1 753.7 552.9 750.8 551.1 750.2Z" fill="#161616"/>
<path d="M553.9 751.3C549.3 743.7 550.8 733.1 558.2 727.8C565.6 722.5 576.2 724.7 581.8 731.5C583 733 585.1 730.9 583.9 729.4C577.3 721.5 564.9 719.3 556.3 725.4C547.7 731.6 545.9 744 551.3 752.8C552.3 754.4 554.9 752.9 553.9 751.3Z" fill="#161616"/>
<path d="M564.2 755.5C559.5 750.5 560.2 741.2 566.5 737.6C572.7 734 581.1 738.1 583.1 744.7C583.7 746.5 586.6 745.8 586 743.9C583.4 735.5 572.9 730.5 565 735.1C557.1 739.7 556.1 751.3 562.1 757.7C563.4 759 565.5 756.9 564.2 755.5Z" fill="#161616"/>
<path d="M571.9 762.5C575.8 763.9 580.3 761.6 581.8 757.9C583.4 754.2 581.3 750.2 577.8 748.6C574.3 747 570.1 747.9 568.2 751.3C566.4 754.6 567 759.1 570 761.5C571.5 762.7 573.6 760.6 572.1 759.4C568.1 756.3 570.9 749 576.2 751.2C578.5 752.1 580.1 754.5 579 757C577.9 759.4 575.1 760.6 572.7 759.7C570.9 759 570.1 761.9 571.9 762.5Z" fill="#161616"/>
<path d="M768.3 627.3L777.1 902.8" stroke="#161616" stroke-width="3"/>
<path d="M768.9 627.1C771.6 717.7 774.3 808.3 777 898.9" stroke="#161616" stroke-width="3"/>
<path opacity="0.37" d="M595.8 608.7C602.3 612.1 658.1 642.5 662 696.5C664.2 726.3 649.6 748.9 640.4 762.7C590.8 837.3 492.7 850.5 466.1 853.3C504.8 879 640 963.7 787.8 958.7C820.7 957.6 871.7 955.3 927 924.9C968.5 902.1 995.4 872.8 1010.8 853.3C1001.3 847.4 991.9 841.6 982.4 835.7C912.6 859.6 842.7 883.5 772.9 907.3C769.3 814.9 765.7 722.6 762.1 630.2C706.6 623.2 651.2 616 595.8 608.7Z" fill="#3D3D3D"/>
<path opacity="0.5" d="M516.3 859.8C529.3 868.4 549.4 880.7 575.4 892.5C607.8 907.3 703.7 951.1 807.6 926.8C883.1 909.1 941.5 860.6 937.7 852.6C935.3 847.6 906 852.8 775.5 904.7C773.4 862.4 771.3 820 769.3 777.7C765.7 813.3 762 848.9 758.4 884.4C677.7 876.3 597 868 516.3 859.8Z" fill="#3D3D3D"/>
<path d="M543.2 745.8C535.9 737.8 533.5 726.6 537.1 716.8C540.8 706.9 550.6 698.4 562.3 698.8C572.6 699.2 580.9 706.4 583.9 713.2C586.1 718.4 585.6 723.2 585.6 723.2C585.3 725.9 584.4 728 583.7 729.3C578.6 723.4 570.8 720.7 563.5 722.4C554.5 724.5 550.6 732.2 550.2 732.9C546.1 741.3 549.7 749.1 550.2 750C547.8 748.5 545.5 747.1 543.2 745.8Z" fill="#4F46E5"/>
<path d="M1049.2 619.2C1043.8 623.2 1038 628.6 1032.7 635.7C1013 662.2 1015.7 693.3 1017.1 703.4C999.6 699.8 970.2 696.3 935.5 704.3C914.8 709.1 898.2 716.6 886 723.4C887.9 724.6 890.5 726 893.8 726.9C912.5 732 932.2 716.3 932.8 717.4C933.4 718.4 910.8 729 912 738.2C912.8 744.4 923.9 747.7 935.4 751.2C945.1 754.1 954.3 756.9 966.6 755.5C983.5 753.6 995.2 745.1 1000.4 740.7C1005.4 743.2 1012.8 746.5 1022.1 749.4C1039.2 754.6 1062.8 761.8 1078.5 752C1088.7 745.6 1091.8 730.6 1097.6 700.8C1105 662.6 1108.7 643.5 1098.5 631.4C1085 615.3 1057.9 618 1049.2 619.2Z" fill="white" stroke="#161616" stroke-width="3"/>
<path d="M1013.7 704.4C1025.8 708.9 1035.8 717.1 1042.7 728C1043.7 729.6 1046.3 728.1 1045.3 726.5C1038 714.9 1027.3 706.3 1014.5 701.5C1012.7 700.9 1011.9 703.8 1013.7 704.4Z" fill="#161616"/>
<path d="M949.4 724.2C937.5 726.2 927.9 734.2 923.6 745.4C922.9 747.2 925.8 748 926.5 746.2C930.4 736 939.4 728.9 950.2 727.1C952.1 726.8 951.3 723.9 949.4 724.2Z" fill="#161616"/>
<path d="M925 747.3C931.2 753.2 939.8 755.2 947.9 752.6C949.7 752 948.9 749.1 947.1 749.7C940 752 932.5 750.4 927.1 745.2C925.7 743.8 923.6 745.9 925 747.3Z" fill="#161616"/>
<path d="M963.3 734.1C959 736.7 955 739.7 951.2 742.9C948.7 745.1 945.9 747.7 946.5 751.3C948 760.8 959.4 758.7 965.6 756.3C967.4 755.6 966.6 752.7 964.8 753.4C962.1 754.4 959.1 755.7 956.2 755.6C951.5 755.4 947.3 750.9 951.3 746.8C955.1 742.8 960.1 739.6 964.8 736.6C966.5 735.7 965 733.1 963.3 734.1Z" fill="#161616"/>
<path d="M1044.2 476.5C1048.3 479.7 1053.6 484.1 1059.2 489.8C1060.8 491.4 1064.9 495.6 1069 500.8C1075.4 508.8 1079.5 516.4 1084 525.7C1089.8 537.6 1095.6 549.5 1101.4 567.3C1106.3 582.3 1113.8 605.9 1114.7 637.3C1115.1 649.7 1114.3 660.1 1113.5 667.4C1109.4 662.7 1105.3 659.6 1101.9 657.6C1082.8 645.9 1059.6 650.1 1037.7 654.1C1029.5 655.6 1022.7 657.4 1018 658.7C1019.2 647.7 1020.3 636.7 1021.5 625.7C1022.5 616.5 1023.4 607.2 1024.4 597.9C1022.5 594.6 1019.9 589.9 1017.5 584C1012.8 572.7 1003.4 550.5 1008.8 525.6C1015.2 497 1037.7 480.8 1044.2 476.5Z" fill="#38BDF8"/>
<path d="M1047.7 482C1057.7 487.2 1064.4 496.2 1070.2 505.5C1076.2 515.1 1081.6 525 1086.4 535.2C1096.2 556 1103.4 578 1108.1 600.5C1108.5 602.4 1111.4 601.6 1111 599.7C1106.2 576.3 1098.6 553.6 1088.2 532C1083.1 521.4 1077.5 511.1 1071.1 501.2C1065.4 492.4 1058.7 484.2 1049.3 479.3C1047.5 478.5 1046 481.1 1047.7 482Z" fill="#161616"/>
<path d="M1016.5 583.7C1021.1 593.1 1025.9 602.3 1030.9 611.5C1031.8 613.2 1034.4 611.7 1033.5 610C1028.5 600.8 1023.7 591.6 1019.1 582.2C1018.2 580.4 1015.6 581.9 1016.5 583.7Z" fill="#161616"/>
<path d="M1023.6 600.9C1021.1 620.3 1018.6 639.7 1016.2 659.1C1016.1 660.1 1017.3 660.8 1018.1 660.5C1035.1 655.1 1052.8 652.5 1070.6 653.1C1084.7 653.6 1103.4 654.9 1111.3 668.7C1112.3 670.4 1114.8 668.9 1113.9 667.2C1106.4 654 1090 651.3 1076.2 650.4C1056.3 649 1036.3 651.6 1017.4 657.6C1018 658.1 1018.7 658.6 1019.3 659C1021.8 639.6 1024.3 620.2 1026.7 600.8C1026.9 599 1023.9 599 1023.6 600.9Z" fill="#161616"/>
<path d="M1107.9 599C1111.4 621 1117.1 644.3 1111.2 666.4C1110.7 668.3 1113.6 669.1 1114.1 667.2C1120.1 644.6 1114.4 620.8 1110.8 598.2C1110.5 596.3 1107.6 597.1 1107.9 599Z" fill="#161616"/>
<path opacity="0.32" d="M1036.6 472.8C1045.7 489.8 1054.8 510.1 1062.5 533.4C1077.6 579.4 1081.6 620.7 1081.9 651.6C1071.7 652.2 1061.5 652.8 1051.3 653.4C1054.6 677.1 1058 700.9 1061.3 724.6C1054.9 720.9 1045.1 716.2 1032.5 713.4C1028.4 712.5 1013.3 709.5 997.2 712.2C963.4 717.9 943 745.6 938.4 752.2C943 754.1 948.9 755.9 956 756.3C977.8 757.6 993.7 745 998.4 741C1013.3 748.5 1026.3 752.1 1035.5 753.9C1051.6 757.2 1070.4 761 1080.8 751C1081.6 750.2 1083.4 748.3 1087.3 738.6C1093.4 723.2 1096.6 708.8 1100.8 682.7C1101.7 676.9 1103 669.1 1104.3 659.8C1106.8 662.3 1109.4 664.9 1111.9 667.4C1113.1 662.9 1114.6 656.2 1115.4 648C1117.5 626.7 1113.4 609.9 1109.5 596.2C1093.8 540.8 1084.4 507.4 1053 483.2C1046.5 478.4 1040.5 474.9 1036.6 472.8Z" fill="#3D3D3D"/>
<path opacity="0.29" d="M1089.5 541.3C1096.2 573.9 1097.1 601.6 1096.6 621.6C1096.1 640.2 1094.2 653.8 1092.2 667.5C1086.3 708.8 1083.3 729.4 1071.9 739C1050.3 757.2 1011.8 743.4 1002.6 739.9C1011.3 745.7 1042.6 765.4 1073.2 754.5C1076.4 753.3 1079.9 751.8 1083.3 749.6C1086.9 743.5 1091.7 734.1 1094.8 721.8C1096.6 714.5 1097.1 709.2 1097.8 703C1098.9 693 1100.8 678.4 1104 660.1C1106.9 662.6 1109.9 665.1 1112.8 667.6C1113.8 662.5 1115.1 654.7 1115.4 645.1C1116.3 621.9 1111.2 604.3 1105.3 584.2C1102.1 573.2 1097.1 558.4 1089.5 541.3Z" fill="#3D3D3D"/>
<path d="M814.6 278.8C815.6 289.5 817.4 304.5 821.4 322.2C824 333.7 825.6 341 829 350.1C834.1 363.8 843.8 390 869.1 407.1C875.2 411.3 885.3 416.9 899.5 420.2C901.8 420.4 904.1 420.7 906.4 420.9C907.2 425.1 908.2 431.3 909.2 438.8C911.6 458.1 910.4 464 915.4 469.2C921.5 475.5 931.2 474.9 933.3 474.7C950 473.6 958.4 457 958.8 456.1C956.1 451.2 953.4 445.2 951.2 438.2C946.4 422.7 946.3 408.9 947.1 399.5C954.8 388.4 963.3 379.9 971.9 373.3C975.2 370.8 978 367.4 982.9 365.7C989.9 363.3 993.5 365.7 998.7 364.1C1007.3 361.4 1011 350.3 1012.6 345.7C1018.7 327.5 1011.2 309.5 1006.4 298.8C1002.1 289 990.9 264.7 963.6 245.7C935.5 226.1 879.3 204.3 842.1 232.6C835.7 237.5 821.1 250.6 814.6 278.8Z" fill="white"/>
<path d="M818.8 320C812.4 318.9 796.2 315.1 785.7 301.2C769.7 280.1 778.3 250.6 787.2 235C801.2 210.5 826.7 202 858.7 191.3C877.7 185 895.8 179 920.4 180C934 180.6 980.1 182.6 1007.7 216.9C1024.1 237.2 1025.9 259 1029.5 302C1031.2 321.7 1029.9 332.4 1026.5 342.6C1024 350 1015.9 373.7 992.6 383.2C980.4 388.2 969.1 387.2 962.9 386.2C968.5 377.9 974.1 369.7 979.8 361.4C983 361.6 994.4 361.8 1003.1 353.9C1015 343 1017.1 321.3 1008.4 315.5C1002 311.2 989.3 315.4 978.3 325.3C977.3 319 975.7 312.1 973 305C960.4 271.1 933 252.5 919.6 244.8C914.3 251.6 897.5 271.5 867.7 279.4C844.1 285.6 824.5 281.2 815.8 278.6C816.8 292.4 817.8 306.2 818.8 320Z" fill="#4F46E5"/>
<path d="M813.8 281.4C817.9 312.3 822.2 344.4 837.3 372.2C849.7 395 869.7 414.5 895.4 421C897.3 421.5 898.1 418.6 896.2 418.1C870.8 411.6 851.2 392 839.2 369.3C824.9 342.3 820.8 311.3 816.8 281.4C816.5 279.5 813.5 279.5 813.8 281.4Z" fill="#161616"/>
<path d="M895.4 421.4C913.5 421.4 932.5 411.7 946.7 401.3C961 390.8 972.7 377.3 981.1 361.7C982 360 979.4 358.5 978.5 360.2C970.4 375.4 959.1 388.6 945.2 398.7C931.3 408.9 912.9 418.4 895.4 418.4C893.4 418.4 893.4 421.4 895.4 421.4Z" fill="#161616"/>
<path d="M946.6 398.9C944.6 419.1 948.5 439.3 957.7 457.4C958.6 459.1 961.2 457.6 960.3 455.9C951.3 438.2 947.7 418.6 949.6 398.9C949.8 397 946.8 397 946.6 398.9Z" fill="#161616"/>
<path d="M903.1 420.9C906.4 432.3 909.1 443.9 911.1 455.6C912.4 463.4 912.9 472.2 921.6 475.1C934.6 479.5 953.8 471.7 958.8 458.8C959.5 457 956.6 456.2 955.9 458C953.1 465.3 946.1 469.3 938.9 471.4C932.9 473.1 923.8 474.9 918.7 470C915.7 467.1 915.3 462.5 914.7 458.6C914 454.5 913.3 450.4 912.5 446.3C910.7 437.5 908.6 428.7 906.1 420.1C905.5 418.3 902.6 419.1 903.1 420.9Z" fill="#161616"/>
<path d="M907.4 433.3C925.2 431 936.9 417.4 945.5 402.8C946.5 401.1 943.9 399.6 942.9 401.3C935 414.9 924 428.2 907.4 430.3C905.5 430.6 905.5 433.6 907.4 433.3Z" fill="#161616"/>
<path d="M906.7 423.1C920.6 421.5 933.1 415 942.4 404.5C943.7 403.1 941.6 400.9 940.3 402.4C931.6 412.3 919.8 418.6 906.7 420.1C904.9 420.3 904.8 423.3 906.7 423.1Z" fill="#161616"/>
<path d="M907.2 420.9C918.4 419.3 928.5 414.7 937.1 407.4C938.6 406.1 936.4 404 935 405.3C926.8 412.3 917.1 416.6 906.4 418.1C904.5 418.3 905.3 421.2 907.2 420.9Z" fill="#161616"/>
<path d="M906.6 423.4C907.1 425.8 907 430.6 910 431.4C912.9 432.2 917.3 428.8 919.6 427.4C927.5 422.6 934.1 416.1 939.3 408.5C940.4 406.9 937.8 405.4 936.7 407C933 412.5 928.5 417.4 923.2 421.4C920.7 423.3 918.1 424.9 915.4 426.4C914.3 427 911.8 428.7 910.7 428C910 427.6 909.7 423.3 909.6 422.6C909.1 420.7 906.2 421.5 906.6 423.4Z" fill="#161616"/>
<path d="M908 426.2C916.6 422.7 924.7 418.3 932.3 413C933.9 411.9 932.4 409.3 930.8 410.4C923.4 415.6 915.6 419.9 907.2 423.3C905.4 424 906.2 426.9 908 426.2Z" fill="#161616"/>
<path d="M909.5 429.2C919.1 425.8 927.5 420.5 934.5 413.1C935.8 411.7 933.7 409.6 932.4 411C925.7 417.9 917.8 423.1 908.7 426.3C906.9 427 907.7 429.9 909.5 429.2Z" fill="#161616"/>
<path d="M911.1 427.6C918.2 424.5 924.7 420.3 930.3 414.9C931.7 413.6 929.6 411.5 928.2 412.8C922.7 418 916.5 422 909.6 425C907.8 425.8 909.3 428.4 911.1 427.6Z" fill="#161616"/>
<path d="M829.4 357.4C813.1 351.6 807.7 330.3 809.3 314.9C811 298 826.2 279.6 844.8 287.5C853.7 291.3 857 301.1 859.4 309.8C861.9 319 863 329.2 860.6 338.6C858.5 346.9 853.4 354.8 845.4 358.4C837.4 362 827.9 360 822.5 353.1C821.3 351.6 819.2 353.7 820.4 355.2C829.5 366.9 846.6 364.6 855.8 354.3C867.5 341.2 866.3 321.3 861.3 305.6C859 298.3 856 290.7 849.3 286.5C843.5 282.8 836.1 281.9 829.6 283.6C814.4 287.7 806.5 303.8 806.2 318.5C805.9 334.6 812.2 354.5 828.8 360.3C830.4 360.9 831.2 358 829.4 357.4Z" fill="#161616"/>
<path d="M864 327.5C873.8 321.6 885.7 321 895.9 326.1C897.6 327 899.1 324.4 897.4 323.5C886.2 317.9 873.2 318.4 862.4 324.9C860.9 325.9 862.4 328.5 864 327.5Z" fill="#161616"/>
<path d="M911.8 348.8C900.5 337.9 895.8 321 900.2 305.8C904.8 290 920.6 276.4 937.6 282C956.4 288.2 957.4 315.1 952.5 330.9C949.6 340.2 943.8 349.5 934.2 352.9C924.6 356.3 916.3 351.2 908.6 345.8C907 344.7 905.5 347.3 907.1 348.4C913.4 352.9 920.2 357.4 928.2 357.1C935.8 356.8 942.7 352.6 947.4 346.9C958 334.1 960.1 314.6 955.7 299C951.7 284.8 939.9 275.6 924.8 278.1C910.4 280.4 899.8 293.4 896.6 307C892.9 322.7 897.9 339.7 909.5 350.9C911.1 352.3 913.2 350.1 911.8 348.8Z" fill="#161616"/>
<path d="M838.5 315.9C837.5 322.2 838.6 328.3 842 333.7C842.7 334.8 844.3 334.6 844.7 333.3C847.1 326.4 843.7 319.6 840.3 313.7C839.6 312.4 837.5 313 837.5 314.5C837.6 319.8 838.7 325 840.7 329.9C841.4 331.7 844.3 330.9 843.6 329.1C841.7 324.4 840.6 319.6 840.5 314.5C839.6 314.8 838.6 315 837.7 315.3C840.8 320.6 844 326.4 841.8 332.6C842.7 332.5 843.6 332.4 844.5 332.2C841.5 327.5 840.4 322.2 841.3 316.7C841.7 314.8 838.8 314 838.5 315.9Z" fill="#161616"/>
<path d="M927 313.1C927 311.8 926.9 311.5 926.3 310.4C925.6 309.1 923.5 309.7 923.5 311.2C923.6 317.4 924.1 324.1 928.9 328.5C929.9 329.4 931.3 328.7 931.5 327.4C932.3 320 930.1 313.1 925.5 307.3C924.5 306.1 922.7 307.4 923 308.8C924.2 313.7 925.7 318.5 927.5 323.1C928.2 324.9 931.1 324.1 930.4 322.3C928.5 317.6 927 312.9 925.9 308C925.1 308.5 924.2 309 923.4 309.5C927.5 314.7 929.2 320.9 928.5 327.5C929.4 327.1 930.2 326.8 931.1 326.4C926.8 322.5 926.6 316.6 926.5 311.2C925.6 311.5 924.6 311.7 923.7 312C923.8 312.4 923.9 312.8 924 313.2C924 315 927 315 927 313.1Z" fill="#161616"/>
<path d="M874 332.8C872 338.8 870.3 344.9 869.2 351.1C868.6 354.4 866.5 360.6 868 363.9C871 370.6 884.3 366.5 888.9 364.3C890.6 363.5 889.1 360.9 887.4 361.7C883.7 363.5 879.7 364.4 875.6 364.1C873.2 363.9 871.3 363.5 870.8 360.8C870.5 359.3 871.5 355.4 871.8 353.7C873 346.8 874.8 340.1 877 333.5C877.5 331.8 874.6 331 874 332.8Z" fill="#161616"/>
<path d="M889.1 390.5C896.6 389.5 903.1 384.7 906.4 377.8C907.2 376.1 904.6 374.5 903.8 376.3C900.8 382.6 895.2 386.7 888.3 387.6C886.4 387.9 887.3 390.8 889.1 390.5Z" fill="#161616"/>
<path d="M832.2 307.3C834.1 305 837.6 304.6 840 306.6C841.5 307.9 843.6 305.7 842.1 304.5C838.6 301.5 833.2 301.7 830.1 305.2C828.8 306.6 830.9 308.7 832.2 307.3Z" fill="#161616"/>
<path d="M918 301.7C921.1 299 925.8 299 928.9 301.6C930.4 302.8 932.5 300.7 931 299.5C926.6 295.7 920.2 295.8 915.8 299.6C914.4 300.9 916.6 303 918 301.7Z" fill="#161616"/>
<path d="M957.4 315.5C968.2 311.7 979.3 309.4 990.8 308.8C992.7 308.7 992.7 305.7 990.8 305.8C979.1 306.4 967.7 308.7 956.6 312.6C954.8 313.3 955.5 316.2 957.4 315.5Z" fill="#161616"/>
<path opacity="0.4" d="M972.3 190.9C978.3 198.6 1001.4 230.2 997.1 273.6C994.7 297.8 984.7 315.6 978.4 325C982 322.2 985.1 320.3 987.4 319C993.5 315.6 997.4 313.5 1002.4 313.8C1003.9 313.9 1007.5 314.2 1010.1 316.3C1017.7 322.7 1015.1 345.4 1001.6 356C994.2 361.8 985.5 362.4 981.1 362.3C975.4 370.4 969.6 378.5 963.9 386.7C967.7 387.3 973.5 387.8 980.2 386.8C983.1 386.4 994.7 384.3 1005.7 375.5C1016.5 366.8 1020.9 356.2 1023.8 349C1031.8 329 1030.2 311.4 1027.4 279.7C1026.2 265.6 1025.5 258.4 1022.7 248.9C1019.7 238.6 1015 223.4 1001.6 209.8C992 199.8 981.2 194.2 972.3 190.9Z" fill="#3D3D3D"/>
<path opacity="0.48" d="M875.7 276.4C885.7 267.5 896.9 256.1 907.7 241.9C914.4 233.1 920 224.6 924.6 216.7C922.9 225.7 921.2 234.7 919.6 243.7C915.7 249.3 909.2 257.3 899.1 264.6C890.2 270.9 881.8 274.4 875.7 276.4Z" fill="#3D3D3D"/>
<path opacity="0.27" d="M946.8 265C954.4 290.3 955 311.5 954.3 325.5C953.8 335.9 951 390.4 922.3 409.2C919.5 411 912.4 415.2 912.7 415.8C913.1 416.5 926.4 410.6 933.7 406.6C945.2 400.4 962.9 387.9 979.3 361.5C982 361.8 995.2 362.7 1004.7 353.6C1016.2 342.7 1018.2 321.3 1009.1 315C1002.6 310.5 990.2 314.3 979.3 323.3C978.2 318.7 976.8 313.9 974.9 308.8C967.4 289 956.1 274.6 946.8 265Z" fill="#3D3D3D"/>
<path opacity="0.36" d="M922.7 415C925.3 423 927.9 431 930.5 439.1C934.1 450.1 937.6 461.2 941.1 472.2C943.1 471.8 948 470.4 952.3 466C956.6 461.6 958 456.8 958.5 454.8C954.6 447.1 950 435.4 948.4 420.6C947.6 412.9 947.8 406.1 948.4 400.4C939.9 405.3 931.3 410.2 922.7 415Z" fill="#3D3D3D"/>
<path opacity="0.43" d="M872.8 336.3C867.8 347 862.8 357.6 857.8 368.3C866 368.1 874.1 368 882.3 367.8C877.5 366.3 872.6 364.8 867.8 363.3C869.4 354.3 871.1 345.3 872.8 336.3Z" fill="#3D3D3D"/>
<defs>
<filter id="filter0_d_0_628" x="0.547974" y="664.16" width="1534.67" height="552.771" filterUnits="userSpaceOnUse" color-interpolation-filters="sRGB">
<feFlood flood-opacity="0" result="BackgroundImageFix"/>
<feColorMatrix in="SourceAlpha" type="matrix" values="0 0 0 0 0 0 0 0 0 0 0 0 0 0 0 0 0 0 127 0" result="hardAlpha"/>
<feOffset dy="70"/>
<feGaussianBlur stdDeviation="50"/>
<feComposite in2="hardAlpha" operator="out"/>
<feColorMatrix type="matrix" values="0 0 0 0 0.0862745 0 0 0 0 0.0862745 0 0 0 0 0.0862745 0 0 0 0.15 0"/>
<feBlend mode="normal" in2="BackgroundImageFix" result="effect1_dropShadow_0_628"/>
<feBlend mode="normal" in="SourceGraphic" in2="effect1_dropShadow_0_628" result="shape"/>
</filter>
</defs>
</svg>
